<svg xmlns="http://www.w3.org/2000/svg" xmlns:xlink="http://www.w3.org/1999/xlink" viewBox="0 0 48.41 47.6"><defs><style>.cls-1{fill:none;}.cls-2,.cls-3{fill:#454544;}.cls-3{fill-rule:evenodd;}.cls-4{fill:#fff;}.cls-5{clip-path:url(#clip-path);}.cls-6{fill:#00a7e1;}</style><clipPath id="clip-path"><rect class="cls-1" x="23.75" y="7" width="13.12" height="4.62"/></clipPath></defs><g id="Layer_2" data-name="Layer 2"><g id="Layer_1-2" data-name="Layer 1"><path class="cls-2" d="M48.22,23.76,44.57,18.9V1a1,1,0,0,0-1-1H18.71a1,1,0,0,0-1,1V18.9L14.1,23.76a1,1,0,0,0,.77,1.54H47.45a1,1,0,0,0,.77-1.54ZM26.4,23.38l.72-1.6H35.2l.72,1.6Zm16.25-5.13h-23V1.92h23Z"/><path class="cls-3" d="M2.07,43.08A1.55,1.55,0,0,1,.54,41.53V37.48a6.09,6.09,0,0,1,6.09-6.09h7a6.1,6.1,0,0,1,6.09,6.1v4.82a1.56,1.56,0,0,1-1.56,1.56Z"/><path class="cls-4" d="M13.67,31.94a5.55,5.55,0,0,1,5.55,5.55v4.82a1,1,0,0,1-1,1L2.1,42.54a1,1,0,0,1-1-1V37.48a5.54,5.54,0,0,1,5.54-5.54h7m0-1.09h-7A6.63,6.63,0,0,0,0,37.48v4.05a2.1,2.1,0,0,0,2.07,2.1l16.08.78h.05a2.11,2.11,0,0,0,2.11-2.1V37.49a6.65,6.65,0,0,0-6.64-6.64Z"/><circle class="cls-2" cx="10.15" cy="25.94" r="5.88"/><path class="cls-4" d="M10.15,19.51A6.43,6.43,0,0,0,7.84,31.94h4.61a6.43,6.43,0,0,0-2.3-12.43Zm0,11.77a5.35,5.35,0,1,1,5.34-5.34A5.34,5.34,0,0,1,10.15,31.28Z"/><path class="cls-3" d="M20.78,43.87a1.56,1.56,0,0,1-1.55-1.56V37.48a6.09,6.09,0,0,1,6.09-6.09h7a6.11,6.11,0,0,1,6.1,6.1v4a1.56,1.56,0,0,1-1.57,1.55l-16.08.79Z"/><path class="cls-4" d="M32.35,31.94a5.54,5.54,0,0,1,5.55,5.55v4a1,1,0,0,1-1,1l-16.1.79a1,1,0,0,1-1-1V37.48a5.54,5.54,0,0,1,5.55-5.54h7m0-1.09h-7a6.63,6.63,0,0,0-6.63,6.63v4.83a2.1,2.1,0,0,0,2.09,2.1h.06l16.08-.78A2.11,2.11,0,0,0,39,41.53v-4a6.65,6.65,0,0,0-6.64-6.64Z"/><circle class="cls-2" cx="28.84" cy="25.94" r="5.88"/><path class="cls-4" d="M28.84,19.51a6.43,6.43,0,0,0-2.31,12.43h4.61a6.43,6.43,0,0,0-2.3-12.43Zm0,11.77a5.35,5.35,0,1,1,5.34-5.34A5.35,5.35,0,0,1,28.84,31.28Z"/><path class="cls-3" d="M11.72,47.05a1.55,1.55,0,0,1-1.56-1.55V40.67a6.09,6.09,0,0,1,6.09-6.09h7a6.09,6.09,0,0,1,6.09,6.09V45.5a1.55,1.55,0,0,1-1.56,1.55Z"/><path class="cls-4" d="M23.29,35.12a5.56,5.56,0,0,1,5.55,5.55V45.5a1,1,0,0,1-1,1H11.72a1,1,0,0,1-1-1V40.67a5.55,5.55,0,0,1,5.55-5.55h7m0-1.08h-7a6.63,6.63,0,0,0-6.63,6.63V45.5a2.1,2.1,0,0,0,2.1,2.1h16.1a2.1,2.1,0,0,0,2.1-2.1V40.67A6.63,6.63,0,0,0,23.29,34Z"/><circle class="cls-2" cx="19.77" cy="29.12" r="5.88"/><path class="cls-4" d="M19.77,22.69a6.43,6.43,0,0,0-2.31,12.43h4.61a6.43,6.43,0,0,0-2.3-12.43Zm0,11.77a5.34,5.34,0,1,1,5.34-5.34A5.33,5.33,0,0,1,19.77,34.46Z"/><g id="Artwork_8" data-name="Artwork 8"><g class="cls-5"><g class="cls-5"><path class="cls-2" d="M30.25,7.44a3.08,3.08,0,0,1-2.46.11s-.05,0,0,0a2.17,2.17,0,0,0,1.6.65s0,0,0,0a4.73,4.73,0,0,0-.82,3.33s0,0,.05,0a5.61,5.61,0,0,1,1.6-3.15,4.23,4.23,0,0,1,3.52-1.06s.05,0,0,0a4,4,0,0,0-3.49.09"/><path class="cls-2" d="M34.3,8.34l-.11.42a.11.11,0,0,1-.1.07h-.5a.69.69,0,0,0-.66.51l-.32,1.22a.11.11,0,0,1-.1.07h-.46a.07.07,0,0,1-.07-.08l.36-1.33a1.31,1.31,0,0,1,1.27-1h.62a.07.07,0,0,1,.07.09"/><path class="cls-2" d="M34.49,8.76l-.35,1.31a.46.46,0,0,0,.44.57h1.58a.3.3,0,0,0,.29-.23l.07-.27s0-.08-.06-.08h-1.6A.07.07,0,0,1,34.8,10l.05-.21h1.23a.7.7,0,0,0,.67-.52l.1-.36a.5.5,0,0,0-.48-.63H35.16a.7.7,0,0,0-.67.51m1.58.43H35l.08-.29a.1.1,0,0,1,.09-.07h1.07l-.08.28a.09.09,0,0,1-.09.08"/><path class="cls-2" d="M32.45,8.35l-1.82,3a.12.12,0,0,1-.11.07h-.45a.06.06,0,0,1-.05-.1l.25-.41a.82.82,0,0,0,.12-.53l-.13-1.49h0a3.67,3.67,0,0,1,.59-.51L31,9.73l.86-1.41A.14.14,0,0,1,32,8.25h.45a.06.06,0,0,1,.05.1"/><path class="cls-6" d="M26.07,8.34,26,8.76a.1.1,0,0,1-.09.07h-.5a.68.68,0,0,0-.66.51l-.33,1.22a.1.1,0,0,1-.09.07h-.46a.07.07,0,0,1-.07-.08l.36-1.33a1.31,1.31,0,0,1,1.26-1H26a.07.07,0,0,1,.07.09"/><path class="cls-6" d="M28.13,8.25h-1.2a.7.7,0,0,0-.67.51l-.35,1.31a.45.45,0,0,0,.43.57h1.8a5,5,0,0,1,.08-.58H26.63a.07.07,0,0,1-.07-.09l.06-.21h1.23a.71.71,0,0,0,.67-.52l.1-.36a.51.51,0,0,0-.49-.63m-.2.86a.1.1,0,0,1-.1.08H26.77l.08-.29a.1.1,0,0,1,.09-.07H28Z"/></g></g></g><path class="cls-2" d="M34.41,11.33c.24.66.65,1.74.9,2.4l.51,1.36c.25.66.7.68,1,0l.42-.85a1.35,1.35,0,0,1,.14-.22l2,2a.94.94,0,0,0,.68.28,1,1,0,0,0,.68-1.63l-2-2c.08,0,.15-.1.22-.13l.86-.42c.63-.3.61-.76-.05-1l-1.36-.51L36,9.73l-1.36-.51c-.66-.25-1,.09-.75.75Z"/></g></g></svg>