<svg xmlns="http://www.w3.org/2000/svg" viewBox="0 0 42.37 36.76"><defs><style>.cls-1{fill:#fff;}.cls-2{fill:#454544;fill-rule:evenodd;}</style></defs><g id="Layer_2" data-name="Layer 2"><g id="Layer_1-2" data-name="Layer 1"><path class="cls-1" d="M.12,14.17l5.05-13a.31.31,0,0,1,.29-.2H25.87a.31.31,0,0,1,.31.31V23.31a.31.31,0,0,1-.41.29L.3,14.58A.31.31,0,0,1,.12,14.17Z"/><path class="cls-2" d="M4.77,3.09H37.69A.31.31,0,0,0,38,2.78V.31A.31.31,0,0,0,37.69,0H4.77a.31.31,0,0,0-.31.31V2.78A.31.31,0,0,0,4.77,3.09ZM41.51,13.14H35.08a.31.31,0,0,1-.3-.23l-2.34-8a.31.31,0,0,1,.3-.4h5.12a.32.32,0,0,1,.28.19l3.66,8A.32.32,0,0,1,41.51,13.14Zm-32.43-.4,2.35-8a.32.32,0,0,1,.3-.23h5.48a.31.31,0,0,1,.31.36l-1.24,8a.3.3,0,0,1-.31.27H9.38A.31.31,0,0,1,9.08,12.74ZM19.2,4.5h4a.31.31,0,0,1,.31.27l1.24,8a.31.31,0,0,1-.31.36H18a.31.31,0,0,1-.31-.36l1.24-8A.31.31,0,0,1,19.2,4.5Zm6.94,8.37-1.24-8a.31.31,0,0,1,.31-.36h5.48a.32.32,0,0,1,.3.23l2.35,8a.31.31,0,0,1-.3.4H26.45A.3.3,0,0,1,26.14,12.87ZM4.43,4.5H9.68a.31.31,0,0,1,.3.4l-2.34,8a.31.31,0,0,1-.3.23H.84a.31.31,0,0,1-.28-.44l3.58-8A.32.32,0,0,1,4.43,4.5ZM42.37,18.14a.31.31,0,0,1-.31.31H.31A.31.31,0,0,1,0,18.14V14.79a.31.31,0,0,1,.31-.32H42.06a.31.31,0,0,1,.31.32ZM36.43,32a1,1,0,0,1-1,1h-14a1,1,0,0,1-1-1V23.39a1,1,0,0,1,1-1h14a1,1,0,0,1,1,1ZM2.25,20.1V36.45a.31.31,0,0,0,.31.31H6.18a.31.31,0,0,0,.31-.31V23.4a1,1,0,0,1,1-1h8.12a1,1,0,0,1,1,1V36.45a.31.31,0,0,0,.31.31h23a.31.31,0,0,0,.31-.31V20.1a.31.31,0,0,0-.31-.31H2.56A.31.31,0,0,0,2.25,20.1ZM12.82,31.45A1.18,1.18,0,1,1,14,30.27a1.18,1.18,0,0,1-1.18,1.18ZM8.14,36.76h6.78a.31.31,0,0,0,.31-.31V24.06a.31.31,0,0,0-.31-.31H8.14a.31.31,0,0,0-.31.31V36.45A.31.31,0,0,0,8.14,36.76Z"/></g></g></svg>