<svg xmlns="http://www.w3.org/2000/svg" viewBox="0 0 52.7 41.36"><defs><style>.cls-1,.cls-2{fill:#454544;}.cls-1{fill-rule:evenodd;}.cls-3{fill:#48484a;}.cls-4{fill:#fff;}</style></defs><g id="Layer_2" data-name="Layer 2"><g id="Layer_1-2" data-name="Layer 1"><path class="cls-1" d="M46.72,20.83a.35.35,0,0,1-.34.35H.34A.35.35,0,0,1,0,20.83v-3.7a.34.34,0,0,1,.34-.34h46a.34.34,0,0,1,.34.34ZM40.17,36.12a1.08,1.08,0,0,1-1.08,1.08H23.7a1.08,1.08,0,0,1-1.08-1.08v-9.5a1.09,1.09,0,0,1,1.08-1.08H39.09a1.08,1.08,0,0,1,1.08,1.08ZM2.48,23V41a.34.34,0,0,0,.34.34h4A.34.34,0,0,0,7.15,41V26.62a1.09,1.09,0,0,1,1.09-1.08h9a1.09,1.09,0,0,1,1.08,1.08V41a.34.34,0,0,0,.34.34H43.93a.34.34,0,0,0,.34-.34V23a.34.34,0,0,0-.34-.34H2.82A.34.34,0,0,0,2.48,23ZM14.13,35.51a1.31,1.31,0,1,1,1.31-1.3,1.3,1.3,0,0,1-1.31,1.3ZM9,41.36h7.48a.34.34,0,0,0,.34-.34V27.36a.34.34,0,0,0-.34-.34H9a.34.34,0,0,0-.34.34V41A.34.34,0,0,0,9,41.36Z"/><g id="Artwork_9" data-name="Artwork 9"><path class="cls-2" d="M6,6.65a4.21,4.21,0,1,1-4.22,4.21A4.22,4.22,0,0,1,6,6.65m0-1a5.19,5.19,0,1,0,5.19,5.19A5.19,5.19,0,0,0,6,5.67"/><path class="cls-2" d="M21.51,6.65a4.21,4.21,0,1,1-4.22,4.21,4.22,4.22,0,0,1,4.22-4.21m0-1a5.19,5.19,0,1,0,5.18,5.19,5.19,5.19,0,0,0-5.18-5.19"/><path class="cls-3" d="M22,10.68,19.4,4.28V2.58L20.62.76a.5.5,0,0,0,0-.5A.48.48,0,0,0,20.21,0H17a.49.49,0,0,0-.49.49A.49.49,0,0,0,17,1H19.3l-.79,1.19a.53.53,0,0,0-.08.27V3.89H11.14a.49.49,0,0,0-.38.18L5.57,10.56a.47.47,0,0,0-.06.51.49.49,0,0,0,.44.28h5.1A1.78,1.78,0,1,0,14.18,9.8l4.56-4.56L21.06,11a.48.48,0,0,0,.45.31.58.58,0,0,0,.18,0,.48.48,0,0,0,.27-.63M10.9,5.45l1,3.87a1.76,1.76,0,0,0-.82,1H7Zm1.86,6.22a.81.81,0,1,1,.81-.81.81.81,0,0,1-.81.81M13.4,9.2a1.88,1.88,0,0,0-.59-.12L11.76,4.86h6Z"/><path class="cls-3" d="M8.87,2.59h3.89a.48.48,0,0,0,.48-.48.49.49,0,0,0-.48-.49H8.87a.49.49,0,0,0-.49.49.48.48,0,0,0,.49.48"/></g><path class="cls-2" d="M47.22,32.52A4.8,4.8,0,0,1,42.8,26.1L33.51,14.41a5.65,5.65,0,0,1-.58,0,4.76,4.76,0,0,1-3.85-2.07,4.57,4.57,0,0,1-.63-4.21,1,1,0,0,1,1-.71,1.08,1.08,0,0,1,.77.34l1.32,1.68,1.19-.16.45-1.09L31.89,6.6a1,1,0,0,1-.19-.89,1,1,0,0,1,.93-.81l.41,0a4.7,4.7,0,0,1,4,2.27,4.65,4.65,0,0,1,.44,4.15L46.77,23a4.55,4.55,0,0,1,.53,0A4.79,4.79,0,0,1,51,24.8a4.74,4.74,0,0,1,.81,4.44,1,1,0,0,1-1,.73H50.7A1.22,1.22,0,0,1,50,29.6l-1.31-1.68-1.18.17-.45,1.08,1.27,1.64a1.05,1.05,0,0,1-.74,1.7Z"/><path class="cls-4" d="M33,5.5a4.17,4.17,0,0,1,3.7,5.9L46.5,23.67a4.4,4.4,0,0,1,.8-.07,4.18,4.18,0,0,1,4,5.45.44.44,0,0,1-.41.3h-.06a.56.56,0,0,1-.29-.16L49,27.26l-1.89.26-.73,1.75,1.51,1.92a.46.46,0,0,1,.07.36.42.42,0,0,1-.38.34h-.36A4.17,4.17,0,0,1,43.52,26L33.77,13.73a3.44,3.44,0,0,1-.84.1A4.21,4.21,0,0,1,29,8.37a.43.43,0,0,1,.41-.29h0a.46.46,0,0,1,.31.15l1.51,1.92,1.88-.27.73-1.75-1.5-1.92a.42.42,0,0,1-.08-.36.42.42,0,0,1,.38-.33l.36,0m0-1.24-.47,0a1.66,1.66,0,0,0-1.48,1.3A1.69,1.69,0,0,0,31.39,7l1.07,1.36-.18.42-.48.07L30.74,7.46l0,0-.05,0a1.71,1.71,0,0,0-1.14-.52h-.07A1.67,1.67,0,0,0,27.86,8a5.22,5.22,0,0,0,.71,4.77,5.39,5.39,0,0,0,4.36,2.33h.31l8.87,11.16a5.44,5.44,0,0,0,5.11,6.92,3.7,3.7,0,0,0,.47,0,1.65,1.65,0,0,0,1.48-1.3,1.61,1.61,0,0,0-.3-1.38l-1.06-1.36.17-.43.48-.06,1.06,1.35,0,0,0,0a1.8,1.8,0,0,0,.93.54h.09l.24,0a1.68,1.68,0,0,0,1.59-1.16,5.44,5.44,0,0,0-5.14-7.08h-.25L38.16,11.18A5.43,5.43,0,0,0,33,4.26Z"/></g></g></svg>