<svg xmlns="http://www.w3.org/2000/svg" xmlns:xlink="http://www.w3.org/1999/xlink" viewBox="0 0 42.18 39.61"><defs><style>.cls-1{fill:none;}.cls-2{fill:#454544;}.cls-3{clip-path:url(#clip-path);}.cls-4{clip-path:url(#clip-path-2);}.cls-5{fill:#00a7e1;}.cls-6{fill:#48484a;}</style><clipPath id="clip-path" transform="translate(0 0)"><rect class="cls-1" x="16.91" width="25.27" height="15.63"/></clipPath><clipPath id="clip-path-2" transform="translate(0 0)"><rect class="cls-1" x="16.91" width="25.27" height="15.63"/></clipPath></defs><g id="Layer_2" data-name="Layer 2"><g id="Layer_1-2" data-name="Layer 1"><polygon class="cls-2" points="9.23 1.78 4.68 1.78 3.48 20.9 10.43 17.43 9.23 1.78"/><path class="cls-2" d="M27.81,24.2V18a.24.24,0,0,0-.35-.21l-13.21,6.6a.24.24,0,0,1-.35-.21V18a.23.23,0,0,0-.34-.21L.13,24.52a.23.23,0,0,0-.13.21V39.37a.24.24,0,0,0,.24.24H41.47a.24.24,0,0,0,.24-.24V18a.24.24,0,0,0-.35-.21l-13.2,6.6A.24.24,0,0,1,27.81,24.2ZM11.93,34.74H5.45a.24.24,0,0,1-.24-.24V29.83a.24.24,0,0,1,.24-.24h6.48a.24.24,0,0,1,.24.24V34.5A.24.24,0,0,1,11.93,34.74Zm12.16,0H17.62a.24.24,0,0,1-.24-.24V29.83a.24.24,0,0,1,.24-.24h6.47a.24.24,0,0,1,.24.24V34.5A.24.24,0,0,1,24.09,34.74Zm12.17,0H29.79a.24.24,0,0,1-.24-.24V29.83a.24.24,0,0,1,.24-.24h6.47a.24.24,0,0,1,.24.24V34.5A.24.24,0,0,1,36.26,34.74Z" transform="translate(0 0)"/><g id="Artwork_9" data-name="Artwork 9"><g class="cls-3"><g class="cls-4"><path class="cls-5" d="M22,6.47a4.11,4.11,0,1,1-4.11,4.11A4.11,4.11,0,0,1,22,6.47m0-.94A5.05,5.05,0,1,0,27,10.58a5.06,5.06,0,0,0-5.05-5" transform="translate(0 0)"/><path class="cls-5" d="M37.13,6.47A4.11,4.11,0,1,1,33,10.58a4.11,4.11,0,0,1,4.11-4.11m0-.94a5.05,5.05,0,1,0,5,5.05,5.05,5.05,0,0,0-5-5" transform="translate(0 0)"/><path class="cls-6" d="M37.57,10.4l-2.5-6.23V2.51L36.26.74a.5.5,0,0,0,0-.49A.48.48,0,0,0,35.86,0H32.7a.47.47,0,0,0-.47.47A.47.47,0,0,0,32.7,1H35L34.2,2.11a.46.46,0,0,0-.07.26V3.79H27a.47.47,0,0,0-.37.18l-5,6.31a.47.47,0,0,0,.37.77h5a1.73,1.73,0,0,0,3.4-.47,1.75,1.75,0,0,0-.35-1l4.44-4.44,2.26,5.65a.47.47,0,0,0,.44.29l.17,0a.49.49,0,0,0,.27-.62M26.79,5.31l.95,3.77a1.69,1.69,0,0,0-.8,1H23Zm1.81,6.06a.79.79,0,1,1,0-1.58.79.79,0,0,1,0,1.58M29.23,9a1.81,1.81,0,0,0-.58-.12l-1-4.11h5.83Z" transform="translate(0 0)"/><path class="cls-6" d="M24.81,2.53H28.6a.48.48,0,0,0,.47-.48.47.47,0,0,0-.47-.47H24.81a.48.48,0,0,0-.48.47.49.49,0,0,0,.48.48" transform="translate(0 0)"/></g></g></g></g></g></svg>