<svg xmlns="http://www.w3.org/2000/svg" xmlns:xlink="http://www.w3.org/1999/xlink" viewBox="0 0 71.82 71.82"><defs><style>.cls-1{fill:none;}.cls-2{clip-path:url(#clip-path);}.cls-3{fill:#fff;}</style><clipPath id="clip-path"><rect class="cls-1" x="11.79" y="10.2" width="48.24" height="51.43"/></clipPath></defs><g id="Layer_2" data-name="Layer 2"><g id="ASSETS"><rect class="cls-1" width="71.82" height="71.82"/><g id="Artwork_12" data-name="Artwork 12"><g class="cls-2"><g class="cls-2"><path class="cls-3" d="M50.06,10.66a1.44,1.44,0,0,0-2,.53L20.22,59.46a1.44,1.44,0,0,0,1.25,2.16,1.43,1.43,0,0,0,1.25-.72L50.59,12.63a1.44,1.44,0,0,0-.53-2"/><path class="cls-3" d="M45.87,42.09A9.12,9.12,0,0,0,43.42,30.2a1.44,1.44,0,1,0-1.72,2.31,6.25,6.25,0,0,1-6.21,10.75,1.44,1.44,0,0,0-1.15,2.65,9.13,9.13,0,0,0,11.53-3.82"/><path class="cls-3" d="M35.17,48a1.44,1.44,0,0,0-1.77,1l-2.31,8.63a1.43,1.43,0,0,0,1,1.76,1.22,1.22,0,0,0,.37,0,1.43,1.43,0,0,0,1.39-1.06l2.32-8.64a1.44,1.44,0,0,0-1-1.76"/><path class="cls-3" d="M42.53,49a1.44,1.44,0,1,0-2.78.74l2.31,8.64a1.43,1.43,0,0,0,1.39,1.06,1.18,1.18,0,0,0,.37,0,1.43,1.43,0,0,0,1-1.76Z"/><path class="cls-3" d="M47.65,45.17a1.44,1.44,0,1,0-2,2l6.32,6.32a1.44,1.44,0,1,0,2-2Z"/><path class="cls-3" d="M58.81,41.62,50.18,39.3a1.44,1.44,0,1,0-.75,2.79l8.63,2.31a1.24,1.24,0,0,0,.38.05,1.44,1.44,0,0,0,.37-2.83"/><path class="cls-3" d="M48.41,34.73A1.45,1.45,0,0,0,49.8,35.8a1.65,1.65,0,0,0,.38,0l8.63-2.32a1.44,1.44,0,1,0-.75-2.78L49.43,33a1.45,1.45,0,0,0-1,1.77"/><path class="cls-3" d="M45.61,29.88a1.45,1.45,0,0,0,2,0L54,23.56a1.44,1.44,0,1,0-2-2l-6.32,6.32a1.45,1.45,0,0,0,0,2"/><path class="cls-3" d="M21.28,43.93v4.34a1.44,1.44,0,1,0,2.88,0v-6L26.33,41l1.35.79a1.46,1.46,0,0,0,.72.19,1.44,1.44,0,0,0,.73-2.69l-1.34-.77V31.65l6-3.44,1.34.77a1.44,1.44,0,1,0,1.44-2.5l-1.34-.77V23.17l5.21-3A1.44,1.44,0,1,0,39,17.67l-3.77,2.17V17L38,15.42a1.44,1.44,0,1,0-1.44-2.5l-1.36.78V11.64a1.44,1.44,0,1,0-2.88,0V13.7l-1.36-.78a1.44,1.44,0,0,0-1.44,2.5L32.3,17v2.81l-3.77-2.17a1.44,1.44,0,0,0-1.44,2.5l5.21,3v2.54l-6,3.44-2.19-1.27v-6a1.45,1.45,0,1,0-2.89,0v4.35l-2.43-1.41V21.58a1.45,1.45,0,0,0-2.89,0v1.57l-1.78-1a1.44,1.44,0,0,0-1.44,2.5l1.78,1-1.35.79a1.44,1.44,0,0,0,.72,2.69,1.38,1.38,0,0,0,.72-.2l2.8-1.61,2.43,1.4-3.77,2.18a1.44,1.44,0,0,0,.73,2.69,1.46,1.46,0,0,0,.72-.19l5.2-3,2.2,1.27v6.86l-2.18,1.25-5.21-3a1.44,1.44,0,1,0-1.44,2.49l3.77,2.18-2.44,1.4-2.8-1.61a1.44,1.44,0,1,0-1.44,2.5l1.36.78-1.79,1a1.44,1.44,0,0,0,.73,2.69,1.46,1.46,0,0,0,.72-.19L16,47v1.56a1.45,1.45,0,1,0,2.89,0V45.33Z"/></g></g></g></g></g></svg>