<svg xmlns="http://www.w3.org/2000/svg" viewBox="0 0 71.82 71.82"><defs><style>.cls-1{fill:none;}.cls-2{fill:#fff;}</style></defs><g id="Layer_2" data-name="Layer 2"><g id="ASSETS"><rect class="cls-1" width="71.82" height="71.82"/><path class="cls-2" d="M43.69,26.43l-7.14,7.15a2.74,2.74,0,0,0-.64-.08,2.94,2.94,0,1,0,2.94,2.94,2.67,2.67,0,0,0-.08-.64l7.14-7.14a1.57,1.57,0,0,0-2.22-2.23Z"/><path class="cls-2" d="M53.28,37.92a1.49,1.49,0,1,0-1.49-1.48A1.49,1.49,0,0,0,53.28,37.92Z"/><path class="cls-2" d="M47.14,47.66a1.49,1.49,0,1,0,2.11,0A1.5,1.5,0,0,0,47.14,47.66Z"/><path class="cls-2" d="M35.91,52.32A1.49,1.49,0,1,0,37.4,53.8,1.49,1.49,0,0,0,35.91,52.32Z"/><path class="cls-2" d="M22.58,47.66a1.49,1.49,0,1,0,2.1,0A1.5,1.5,0,0,0,22.58,47.66Z"/><path class="cls-2" d="M18.54,35A1.49,1.49,0,1,0,20,36.44,1.49,1.49,0,0,0,18.54,35Z"/><path class="cls-2" d="M22.58,23.1a1.49,1.49,0,1,0,2.1,0A1.5,1.5,0,0,0,22.58,23.1Z"/><path class="cls-2" d="M35.91,20.56a1.49,1.49,0,1,0-1.49-1.49A1.49,1.49,0,0,0,35.91,20.56Z"/><path class="cls-2" d="M47.14,23.1a1.49,1.49,0,1,0,2.11,0A1.5,1.5,0,0,0,47.14,23.1Z"/><path class="cls-2" d="M57.14,21a1.44,1.44,0,0,0,2,0,1.44,1.44,0,0,0,0-2l-5.8-5.81a1.46,1.46,0,0,0-2.06,2.06L53.21,17l-2.3,2.3a22.65,22.65,0,0,0-30,0L18.61,17l1.88-1.87a1.45,1.45,0,0,0-2-2.06l-5.81,5.81a1.46,1.46,0,0,0,1,2.48,1.41,1.41,0,0,0,1-.43l1.88-1.87,2.3,2.29a22.74,22.74,0,1,0,34.11,0l2.29-2.29Zm-7.2,29.45a19.83,19.83,0,1,1,5.81-14A19.7,19.7,0,0,1,49.94,50.42Z"/></g></g></svg>