<svg xmlns="http://www.w3.org/2000/svg" xmlns:xlink="http://www.w3.org/1999/xlink" viewBox="0 0 71.82 71.82"><defs><style>.cls-1{fill:none;}.cls-2{clip-path:url(#clip-path);}.cls-3{fill:#fff;}</style><clipPath id="clip-path"><rect class="cls-1" x="16.56" y="10.2" width="49.36" height="51.43"/></clipPath></defs><g id="Layer_2" data-name="Layer 2"><g id="ASSETS"><rect class="cls-1" width="71.82" height="71.82"/><g id="Artwork_5" data-name="Artwork 5"><g class="cls-2"><g class="cls-2"><path class="cls-3" d="M27.92,38a1.64,1.64,0,1,0-1.64-1.64A1.64,1.64,0,0,0,27.92,38"/><path class="cls-3" d="M60.59,18.67a7.6,7.6,0,0,0-7.08-2.16,11.35,11.35,0,0,0-7.57,6.36c-.61-.17-1.41-.41-2.37-.7.22-4.14-.67-7.34-2.6-9.27a7.59,7.59,0,0,0-7.07-2.16,11.29,11.29,0,0,0-7.48,6.15,8.16,8.16,0,0,0-5.75,1.5c-2.65,1.91-4.11,5.24-4.11,9.39V54.21l22.25,7.41,14.13-5.13V51.42a54.24,54.24,0,0,0,5.56-7.9c3.63-6,7.43-19.51,2.09-24.85M34.48,13.59A4.68,4.68,0,0,1,38.92,15c1.48,1.48,1.83,4,1.79,6.34-3.85-1.18-8.53-2.67-11.41-3.6a8.29,8.29,0,0,1,5.18-4.1m-15,14.19c0-4.09,1.57-6.08,2.9-7a5.09,5.09,0,0,1,4.42-.83c3,1,11.18,3.6,16,5-.23.14-.45.29-.68.45-2.89,2.08-4.75,5.27-4.75,8.14v5.56a2.49,2.49,0,0,1-1.23,1.78c-.74.53-3.52,2.14-8.4.51-7.26-2.42-8.24-5.91-8.24-9Zm0,12.19a17.83,17.83,0,0,0,7.32,4.18,15.76,15.76,0,0,0,5,.85,10.42,10.42,0,0,0,5.56-1.48V58.07l-17.87-6ZM50,54.45,40.24,58V33.55c0-1.93,1.43-4.26,3.55-5.79,1.43-1,2.9-1.48,3.84-1.16a1.54,1.54,0,0,0,.3,0c1.83.86,2.1,1.68,2.1,2.29Zm2.91-7.72V28.93c0-2.74-2.21-4.27-4.23-5.13a8.42,8.42,0,0,1,5.39-4.44,4.68,4.68,0,0,1,4.43,1.36C62.25,24.44,59.61,36,56,42c-1.18,2-2.22,3.51-3.07,4.7"/></g></g></g></g></g></svg>