<svg xmlns="http://www.w3.org/2000/svg" xmlns:xlink="http://www.w3.org/1999/xlink" viewBox="0 0 71.82 71.82"><defs><style>.cls-1{fill:none;}.cls-2{clip-path:url(#clip-path);}.cls-3{fill:#fff;}</style><clipPath id="clip-path"><rect class="cls-1" x="0.68" y="14.12" width="70.45" height="43.59"/></clipPath></defs><g id="Layer_2" data-name="Layer 2"><g id="ASSETS"><rect class="cls-1" width="71.82" height="71.82"/><g id="Artwork_10" data-name="Artwork 10"><g class="cls-2"><g class="cls-2"><path class="cls-3" d="M57.05,29.53a13.73,13.73,0,0,0-4,.58l-1.75-4.36V21.12l3.3-4.95a1.32,1.32,0,0,0-1.09-2.06H44.72a1.33,1.33,0,0,0,0,2.65h6.34L48.9,20a1.33,1.33,0,0,0-.22.73v4H28.87a1.35,1.35,0,0,0-1,.5L22.5,31.84a14.09,14.09,0,1,0,6.25,13.49,4.83,4.83,0,1,0,8.39-4.6L49.52,28.35l1.09,2.74a14.09,14.09,0,1,0,6.44-1.56m-28.82-.62,2.63,10.53a4.83,4.83,0,0,0-2.11,2.47,14,14,0,0,0-4.19-8.42Zm-5.32,6.66a11.43,11.43,0,0,1,3.23,6.73H17.52Zm-8.14,19.5a11.45,11.45,0,1,1,6.07-21.15l-7.1,8.87a1.34,1.34,0,0,0-.16,1.4,1.33,1.33,0,0,0,1.19.75H26.14A11.47,11.47,0,0,1,14.77,55.07m18.5-9.25a2.2,2.2,0,1,1,2.2-2.2,2.2,2.2,0,0,1-2.2,2.2M35,39.11a5,5,0,0,0-1.6-.32L30.56,27.33H46.81Zm22,16A11.45,11.45,0,0,1,51.6,33.55l4.22,10.56a1.33,1.33,0,0,0,1.23.83,1.23,1.23,0,0,0,.49-.1,1.32,1.32,0,0,0,.73-1.71L54.05,32.58a11.45,11.45,0,1,1,3,22.49"/><path class="cls-3" d="M22.7,21.16H33.27a1.32,1.32,0,1,0,0-2.64H22.7a1.32,1.32,0,0,0,0,2.64"/></g></g></g></g></g></svg>