<svg xmlns="http://www.w3.org/2000/svg" xmlns:xlink="http://www.w3.org/1999/xlink" viewBox="0 0 363.64 210.64">
    <defs>
        <style>.cls-1{fill:none;}.cls-2{font-size:14.43px;fill:#1a1a1a;font-family:UniSansRegular, Uni Sans;}.cls-3{letter-spacing:-0.02em;}.cls-4{font-size:8.08px;font-family:UniSansBold, Uni Sans;}.cls-5{letter-spacing:0em;}.cls-6{letter-spacing:0em;}.cls-7{fill:#39a84a;}.cls-8{letter-spacing:-0.01em;}.cls-9{fill:red;}.cls-10{fill:#25a5de;}.cls-11{fill:#454544;}.cls-12{clip-path:url(#clip-path);}.cls-13{fill:#00a7e1;}.cls-14{letter-spacing:-0.01em;}.cls-15{letter-spacing:-0.01em;}.cls-16{letter-spacing:-0.01em;}.cls-17{fill:#ff0;}.cls-18{clip-path:url(#clip-path-3);}</style>
        <clipPath id="clip-path">
            <rect class="cls-1" x="118.69" y="2.76" width="25.93" height="9.14" />
        </clipPath>
        <clipPath id="clip-path-3">
            <rect class="cls-1" x="3.72" y="42.1" width="23.64" height="8.33" />
        </clipPath>
    </defs>
    <g id="Layer_2" data-name="Layer 2">
        <g id="Layer_1-2" data-name="Layer 1">
            <text class="cls-2" transform="translate(125.97 145.8)">
                Wheelchai
                <tspan class="cls-3" x="62.82" y="0">r</tspan>
            </text>
            <text class="cls-4" transform="translate(148.55 166.92)">
                In p
                <tspan class="cls-5" x="12.02" y="0">r</tspan>
                <tspan class="cls-6" x="14.73" y="0">oduction</tspan>
            </text>
            <circle class="cls-7" cx="131.65" cy="163.77" r="6.21" />
            <text class="cls-2" transform="translate(266.19 186.46)">
                Scoote
                <tspan class="cls-8" x="40.66" y="0">r</tspan>
                <tspan x="45.09" y="0">s</tspan>
            </text>
            <text class="cls-4" transform="translate(278.37 207.58)">In planning</text>
            <circle class="cls-9" cx="266.95" cy="204.43" r="6.21" />
            <image width="400" height="400" transform="translate(209.08 43.63) scale(0.28)" xlink:href="Asset%2071.png" />
            <image width="333" height="204" transform="translate(218.75 70.39) scale(0.44 0.44)" xlink:href="Asset%2071.png" />
            <g id="traction_2020_PantheraOrtanica_Test6.82_CMYK.psd" data-name="./Asset%2072.png">
                <image width="1758" height="1644" transform="translate(94.08) scale(0.08)" xlink:href="./Asset%2072.png" />
            </g>
            <path class="cls-10" d="M167.94,32.16l5.28.64a.2.2,0,0,1,.17.25l-1.18,5a.2.2,0,0,1-.36.07l-.75-1a.22.22,0,0,0-.29,0c-3.5,2.61-1.66,5.13-.56,6.21a.2.2,0,0,1-.2.34,6.61,6.61,0,0,1-4.21-4.27c-.37-1.61.18-3.55,2.54-5.64a.21.21,0,0,0,0-.27l-.66-.93A.2.2,0,0,1,167.94,32.16Z" />
            <path class="cls-11" d="M117,15.69V19.9h-1.19V15.69h-1.64V14.55h4.32v1.14Z" />
            <path class="cls-11" d="M120.59,17.91h-.43v2H119V14.55h2.12a1.64,1.64,0,0,1,1.74,1.68,1.54,1.54,0,0,1-1.06,1.51l1.09,2.16h-1.32Zm.28-1c.49,0,.75-.27.75-.64s-.26-.65-.75-.65h-.71v1.29Z" />
            <path class="cls-11" d="M126.67,18.81h-2.06l-.39,1.09H123l1.9-5.35h1.49l2,5.33H127ZM125,17.73h1.3l-.65-1.85Z" />
            <path class="cls-11" d="M128.05,17.25a2.72,2.72,0,0,1,2.76-2.8,3,3,0,0,0,2.15-.66c.19-.1.3.07.18.25a5,5,0,0,1-.76,1,2.37,2.37,0,0,1-1.57.56,1.52,1.52,0,0,0-1.53,1.64,1.51,1.51,0,0,0,1.54,1.58,1.36,1.36,0,0,0,1.4-1l1.14.32A2.46,2.46,0,0,1,130.82,20,2.68,2.68,0,0,1,128.05,17.25Z" />
            <path class="cls-11" d="M135.18,15.69V19.9H134V15.69h-1.33a7,7,0,0,0,.86-1.13l3.31,0v1.14Z" />
            <path class="cls-11" d="M137.13,19.9V14.55h1.2V19.9Z" />
            <path class="cls-11" d="M141.39,14.42a2.79,2.79,0,1,1-2.78,2.79A2.71,2.71,0,0,1,141.39,14.42Zm0,4.4a1.51,1.51,0,0,0,1.54-1.62,1.54,1.54,0,1,0-3.08,0A1.51,1.51,0,0,0,141.39,18.82Z" />
            <path class="cls-11" d="M147.83,19.9l-2.2-3.51V19.9h-1.18V14.55h1.44l2,3.25V14.55h1.19V19.9Z" />
            <g id="Artwork_8" data-name="Artwork 8">
                <g class="cls-12">
                    <g class="cls-12">
                        <path class="cls-11" d="M131.54,3.64a6.17,6.17,0,0,1-4.87.22.05.05,0,0,0-.06.08,4.3,4.3,0,0,0,3.16,1.28,0,0,0,0,1,0,0,9.4,9.4,0,0,0-1.62,6.58.05.05,0,0,0,.1,0,11.27,11.27,0,0,1,3.16-6.23,8.35,8.35,0,0,1,7-2.08.05.05,0,0,0,0-.09c-1.38-.84-4.22-1.07-6.9.18" />
                        <path class="cls-11" d="M139.54,5.42l-.23.83a.18.18,0,0,1-.18.14h-1a1.35,1.35,0,0,0-1.3,1l-.65,2.42A.18.18,0,0,1,136,10h-.91a.14.14,0,0,1-.14-.17l.7-2.62a2.61,2.61,0,0,1,2.51-1.92h1.23a.15.15,0,0,1,.14.18" />
                        <path class="cls-11" d="M139.92,6.26l-.69,2.58a.89.89,0,0,0,.86,1.12h3.12a.61.61,0,0,0,.59-.45l.14-.52a.15.15,0,0,0-.14-.18h-3.15a.13.13,0,0,1-.13-.17l.11-.42h2.43a1.38,1.38,0,0,0,1.33-1l.19-.71a1,1,0,0,0-1-1.25h-2.38a1.37,1.37,0,0,0-1.32,1m3.11.83h-2.1l.15-.56a.2.2,0,0,1,.19-.14h2.1l-.15.56a.2.2,0,0,1-.19.14" />
                        <path class="cls-11" d="M135.88,5.43l-3.59,5.89a.26.26,0,0,1-.23.13h-.88a.13.13,0,0,1-.11-.19l.5-.83a1.7,1.7,0,0,0,.25-1l-.26-3h0a7,7,0,0,1,1.15-1L133,8.17l1.71-2.8a.26.26,0,0,1,.23-.13h.88a.13.13,0,0,1,.11.19" />
                        <path class="cls-13" d="M123.27,5.42l-.23.83a.19.19,0,0,1-.18.14h-1a1.35,1.35,0,0,0-1.3,1l-.65,2.42a.18.18,0,0,1-.19.14h-.91a.13.13,0,0,1-.13-.17l.7-2.62a2.6,2.6,0,0,1,2.51-1.92h1.23a.15.15,0,0,1,.14.18" />
                        <path class="cls-13" d="M127.35,5.24H125a1.37,1.37,0,0,0-1.32,1L123,8.84a.89.89,0,0,0,.85,1.12h3.56c0-.49.11-1,.14-1.15h-3.13a.13.13,0,0,1-.13-.17l.11-.42h2.43a1.37,1.37,0,0,0,1.32-1l.2-.71a1,1,0,0,0-1-1.25M127,7a.2.2,0,0,1-.19.14h-2.1l.15-.56a.2.2,0,0,1,.19-.14h2.09Z" />
                    </g>
                </g>
            </g>
            <text class="cls-2" transform="translate(36.61 183.4)">
                St
                <tspan class="cls-14" x="12.65" y="0">r</tspan>
                <tspan x="17.04" y="0">olle</tspan>
                <tspan class="cls-3" x="38.2" y="0">r</tspan>
            </text>
            <text class="cls-4" transform="translate(41.2 204.52)">
                In d
                <tspan class="cls-15" x="12.01" y="0">e</tspan>
                <tspan class="cls-16" x="15.86" y="0">v</tspan>
                <tspan x="19.84" y="0">elopment</tspan>
            </text>
            <circle class="cls-17" cx="29.32" cy="201.37" r="6.21" />
            <image width="123" height="151" transform="translate(10.42 42.12) scale(0.73 0.73)" xlink:href="Asset%2073.png" />
            <g id="Artwork_8-2" data-name="Artwork 8">
                <g class="cls-18">
                    <g class="cls-18">
                        <path class="cls-11" d="M15.44,42.9a5.59,5.59,0,0,1-4.44.2,0,0,0,0,0-.05.08,3.89,3.89,0,0,0,2.87,1.16s0,0,0,0a8.55,8.55,0,0,0-1.48,6c0,.06.08.06.09,0a10.3,10.3,0,0,1,2.88-5.68,7.59,7.59,0,0,1,6.36-1.9c.05,0,.08-.06,0-.08a7.24,7.24,0,0,0-6.29.16" />
                        <path class="cls-11" d="M22.74,44.52l-.21.76a.17.17,0,0,1-.17.13h-.89a1.22,1.22,0,0,0-1.19.91l-.6,2.21a.17.17,0,0,1-.16.13h-.83a.13.13,0,0,1-.13-.16l.64-2.38a2.37,2.37,0,0,1,2.29-1.76h1.12a.13.13,0,0,1,.13.16" />
                        <path class="cls-11" d="M23.08,45.29l-.63,2.36a.82.82,0,0,0,.79,1h2.85a.56.56,0,0,0,.53-.41l.13-.48a.13.13,0,0,0-.12-.16H23.75a.13.13,0,0,1-.12-.16l.1-.38H26a1.26,1.26,0,0,0,1.21-.93l.17-.65a.9.9,0,0,0-.87-1.14H24.29a1.27,1.27,0,0,0-1.21.93m2.84.76H24l.14-.51a.16.16,0,0,1,.16-.13h1.92l-.14.51a.17.17,0,0,1-.17.13" />
                        <path class="cls-11" d="M19.4,44.54,16.13,49.9a.24.24,0,0,1-.21.12h-.81a.11.11,0,0,1-.1-.17l.46-.75a1.48,1.48,0,0,0,.22-.94l-.23-2.7h0a7.23,7.23,0,0,1,1.05-.91L16.73,47l1.56-2.55a.24.24,0,0,1,.21-.12h.8a.12.12,0,0,1,.1.18" />
                        <path class="cls-13" d="M7.9,44.52l-.21.76a.17.17,0,0,1-.17.13H6.63a1.22,1.22,0,0,0-1.19.91l-.6,2.21a.17.17,0,0,1-.16.13H3.85a.13.13,0,0,1-.13-.16l.64-2.38a2.37,2.37,0,0,1,2.29-1.76H7.77a.13.13,0,0,1,.13.16" />
                        <path class="cls-13" d="M11.62,44.36H9.45a1.26,1.26,0,0,0-1.21.93l-.63,2.36a.82.82,0,0,0,.79,1h3.24c0-.45.1-.88.13-1.05H8.91a.13.13,0,0,1-.12-.16l.1-.38h2.22a1.25,1.25,0,0,0,1.21-.93l.17-.65a.9.9,0,0,0-.87-1.14m-.37,1.56a.17.17,0,0,1-.17.13H9.17l.14-.51a.16.16,0,0,1,.16-.13h1.92Z" />
                    </g>
                </g>
            </g>
            <path class="cls-11" d="M5.66,54.27a.14.14,0,0,1,.14.14v3a.36.36,0,0,1-.11.23,3.64,3.64,0,0,1-2.32.77,3.44,3.44,0,0,1,0-6.87,3.74,3.74,0,0,1,2,.56.14.14,0,0,1,.09.17L5,53.7a.14.14,0,0,1-.18.08,2.9,2.9,0,0,0-1.35-.34,1.58,1.58,0,0,0,0,3.15,1,1,0,0,0,.69-.18v-.55H3.25c-.09,0-.14,0-.15-.11L3,54.43a.13.13,0,0,1,.14-.16Zm-1.5,2v0Z" />
            <path class="cls-11" d="M11.76,58.15a.1.1,0,0,1-.1.16h-2a.25.25,0,0,1-.21-.16l-1-2.08H8.35v2.1a.15.15,0,0,1-.15.14H6.56a.14.14,0,0,1-.14-.14v-6.3a.14.14,0,0,1,.14-.14H9a2.14,2.14,0,0,1,2.39,2.15,2,2,0,0,1-1.15,1.82Zm-2.85-3.7a.51.51,0,1,0,0-1H8.35v1Z" />
            <path class="cls-11" d="M13.9,51.73a.13.13,0,0,1,.14.14v6.3a.14.14,0,0,1-.14.14H12.25a.15.15,0,0,1-.14-.14v-6.3a.14.14,0,0,1,.14-.14Z" />
            <path class="cls-11" d="M17.05,51.73c1.64,0,2.62.9,2.62,2.27s-1,2.27-2.62,2.27h-.38v1.9a.15.15,0,0,1-.15.14H14.85a.15.15,0,0,1-.14-.14v-6.3a.14.14,0,0,1,.14-.14Zm.09,2.83a.57.57,0,0,0,0-1.13h-.49v1.13Z" />
            <path class="cls-11" d="M22.4,51.73C24,51.73,25,52.63,25,54s-1,2.27-2.62,2.27H22v1.9a.15.15,0,0,1-.15.14H20.2a.14.14,0,0,1-.13-.14v-6.3a.13.13,0,0,1,.13-.14Zm.09,2.83a.57.57,0,0,0,0-1.13H22v1.13Z" />
            <path class="cls-11" d="M31,51.73c.09,0,.15.06.11.15L29,55.67v2.5a.15.15,0,0,1-.14.14H27.21a.15.15,0,0,1-.14-.14v-2.5L25,51.88c-.05-.09,0-.15.1-.15h1.94a.24.24,0,0,1,.22.15L28,53.6l.76-1.72a.25.25,0,0,1,.22-.15Z" />
        </g>
    </g>
</svg>