<svg xmlns="http://www.w3.org/2000/svg" xmlns:xlink="http://www.w3.org/1999/xlink" viewBox="0 0 241.5 190.75"><defs><style>.cls-1{fill:url(#linear-gradient);}.cls-2{font-size:16.18px;font-family:UniSansBold, Uni Sans;}.cls-2,.cls-8{fill:#00a7e1;}.cls-3,.cls-4{fill:none;stroke:#cbcbcb;stroke-linejoin:round;}.cls-3{stroke-width:0.38px;}.cls-4{stroke-width:0.38px;}.cls-5{font-size:8px;fill:#595959;font-family:UniSansRegular, Uni Sans;}.cls-6{letter-spacing:0.05em;}.cls-7{letter-spacing:-0.06em;}</style><linearGradient id="linear-gradient" x1="232.58" y1="83.05" x2="232.58" y2="38.34" gradientUnits="userSpaceOnUse"><stop offset="0" stop-color="#adadad"/><stop offset="1" stop-color="#adadad" stop-opacity="0"/></linearGradient></defs><g id="Layer_2" data-name="Layer 2"><g id="Layer_1-2" data-name="Layer 1"><polygon class="cls-1" points="225.73 38.72 239.44 38.72 239.44 172.38 225.73 172.38 225.73 38.72 225.73 38.72"/><text class="cls-2" transform="translate(77.05 13.82)">Sold products</text><path class="cls-3" d="M33.45,152.12H238.82M33.45,131.64H238.82M33.45,111.16H238.82M33.45,90.68H238.82M33.45,70.2H238.82M33.45,49.72H238.82M33.45,29.24H238.82"/><line class="cls-4" x1="33.45" y1="172.61" x2="238.82" y2="172.61"/><text class="cls-5" transform="translate(43.15 188.72)"><tspan class="cls-6">2</tspan><tspan class="cls-7" x="4.94" y="0">0</tspan><tspan class="cls-6" x="9.42" y="0">1</tspan><tspan x="12.35" y="0">7</tspan></text><text class="cls-5" transform="translate(0 52.97)">30 000</text><text class="cls-5" transform="translate(0.38 32.13)">35 000</text><text class="cls-5" transform="translate(0.55 73.45)">25 000</text><text class="cls-5" transform="translate(0.17 93.93)">20 000</text><text class="cls-5" transform="translate(2.62 114.42)">15 000</text><text class="cls-5" transform="translate(2.24 134.9)">10 000</text><text class="cls-5" transform="translate(5 155.38)">5 000</text><text class="cls-5" transform="translate(22.5 175.86)">0</text><text class="cls-5" transform="translate(88.19 188.6)"><tspan class="cls-6">2</tspan><tspan class="cls-7" x="4.94" y="0">0</tspan><tspan class="cls-6" x="9.42" y="0">1</tspan><tspan x="12.35" y="0">8</tspan></text><text class="cls-5" transform="translate(133.66 188.6)"><tspan class="cls-6">2</tspan><tspan class="cls-7" x="4.94" y="0">0</tspan><tspan class="cls-6" x="9.42" y="0">1</tspan><tspan x="12.35" y="0">9</tspan></text><text class="cls-5" transform="translate(178.23 188.72)"><tspan class="cls-6">2</tspan><tspan class="cls-7" x="4.94" y="0">0</tspan><tspan class="cls-6" x="9.42" y="0">2</tspan><tspan x="14.36" y="0">0</tspan></text><text class="cls-5" transform="translate(224.6 188.72)"><tspan class="cls-6">2</tspan><tspan class="cls-7" x="4.94" y="0">0</tspan><tspan class="cls-6" x="9.42" y="0">2</tspan><tspan x="14.36" y="0">1</tspan></text><polygon class="cls-8" points="44.7 168.89 60.16 168.89 60.16 172.7 44.7 172.7 44.7 168.89 44.7 168.89"/><polygon class="cls-8" points="90.61 162.41 104.32 162.41 104.32 172.7 90.61 172.7 90.61 162.41 90.61 162.41"/><polygon class="cls-8" points="136.28 152.12 148.74 152.12 148.74 172.7 136.28 172.7 136.28 152.12 136.28 152.12"/><polygon class="cls-8" points="180.69 123.97 194.4 123.97 194.4 172.38 180.69 172.38 180.69 123.97 180.69 123.97"/></g></g></svg>