<svg xmlns="http://www.w3.org/2000/svg" viewBox="0 0 297.17 516.48">
    <defs>
        <style>
            
            .cls-1{fill:#1a1a1a;}.cls-19,.cls-2,.cls-20,.cls-4{fill:#454544;}.cls-3{font-size:25.48px;}.cls-11,.cls-25,.cls-3,.cls-31,.cls-32,.cls-8{fill:#00a7e1;}.cls-3,.cls-31,.cls-32{font-family:Montserrat-ExtraBold, Montserrat;font-weight:800;}.cls-4{font-size:20.96px;}.cls-11,.cls-20,.cls-4{font-family:Montserrat-Bold, Montserrat;}.cls-11,.cls-20,.cls-24,.cls-4{font-weight:700;}.cls-5{letter-spacing:0em;}.cls-6{letter-spacing:-0.02em;}.cls-7{letter-spacing:-0.01em;}.cls-9{letter-spacing:-0.01em;}.cls-10{letter-spacing:0em;}.cls-11,.cls-20{font-size:8.19px;}.cls-12{letter-spacing:-0.01em;}.cls-13{letter-spacing:-0.02em;}.cls-14{letter-spacing:0.01em;}.cls-15{letter-spacing:0em;}.cls-16{letter-spacing:-0.01em;}.cls-17{letter-spacing:-0.02em;}.cls-18,.cls-28{fill:none;}.cls-18,.cls-19{stroke:#1a1a1a;}.cls-18,.cls-19,.cls-28{stroke-miterlimit:10;}.cls-18{stroke-width:1.91px;}.cls-19{stroke-width:0.64px;}.cls-21{letter-spacing:-0.01em;}.cls-22{letter-spacing:0em;}.cls-23{letter-spacing:-0.01em;}.cls-24{font-size:11.06px;font-family:MyriadPro-Bold, Myriad Pro;}.cls-25{font-size:14.32px;font-family:UniSansBold, Uni Sans;}.cls-26{letter-spacing:-0.03em;}.cls-27{letter-spacing:-0.01em;}.cls-28{stroke:#00a7e1;stroke-width:3.81px;}.cls-29{letter-spacing:0em;}.cls-30{letter-spacing:0em;}.cls-31{font-size:15.71px;}.cls-32{font-size:13.57px;}.cls-33,.cls-34,.cls-35,.cls-36,.cls-37{fill:#fff;}.cls-34{letter-spacing:0.01em;}.cls-35{letter-spacing:-0.01em;}.cls-36{letter-spacing:0.01em;}.cls-37{font-size:10.85px;font-family:Roboto-Regular, Roboto;}.cls-38{letter-spacing:-0.01em;}.cls-39{letter-spacing:-0.01em;}.cls-40{letter-spacing:-0.02em;}.cls-41{letter-spacing:-0.01em;}</style>
    </defs>
    <g id="Layer_2" data-name="Layer 2">
        <g id="Layer_1-2" data-name="Layer 1">
            <rect class="cls-1" x="13.83" y="388.82" width="283.34" height="127.66" />
            <path class="cls-2" d="M58.92,73h-1.6v2.1H56.5V73H52v-.6l4.24-5.3h.92L53,72.28h3.48V70.42h.8v1.86h1.6Z" />
            <path class="cls-2" d="M64.27,71a2.1,2.1,0,0,1,.79,1.75A2.35,2.35,0,0,1,64.73,74a2.18,2.18,0,0,1-1,.87,3.68,3.68,0,0,1-1.6.31,4.62,4.62,0,0,1-1.63-.28,3.34,3.34,0,0,1-1.24-.75l.4-.65a2.88,2.88,0,0,0,1.05.67,3.79,3.79,0,0,0,1.4.26A2.34,2.34,0,0,0,63.68,74a1.47,1.47,0,0,0,.55-1.19,1.43,1.43,0,0,0-.62-1.25,3.75,3.75,0,0,0-2.06-.42h-1.7l.41-4h4.38v.73H61l-.28,2.55h1A4.18,4.18,0,0,1,64.27,71Z" />
            <path class="cls-2" d="M66.37,70.79a2.71,2.71,0,0,1,0-3.14,1.73,1.73,0,0,1,2.61,0,2.7,2.7,0,0,1,0,3.16,1.71,1.71,0,0,1-2.61,0Zm2.21-.35a2,2,0,0,0,.34-1.22A2,2,0,0,0,68.58,68a1.1,1.1,0,0,0-.9-.44,1.06,1.06,0,0,0-.9.45,1.93,1.93,0,0,0-.34,1.21,1.91,1.91,0,0,0,.34,1.21,1.06,1.06,0,0,0,.9.45A1.1,1.1,0,0,0,68.58,70.44Zm4-3.33h.67l-5.46,8h-.68Zm-1.25,7.46a2.73,2.73,0,0,1,0-3.15,1.63,1.63,0,0,1,1.3-.6,1.6,1.6,0,0,1,1.31.6,2.73,2.73,0,0,1,0,3.15,1.6,1.6,0,0,1-1.31.6A1.63,1.63,0,0,1,71.28,74.57Zm2.21-.36A2,2,0,0,0,73.82,73a2,2,0,0,0-.33-1.22,1.08,1.08,0,0,0-.91-.44,1,1,0,0,0-.89.44,2.34,2.34,0,0,0,0,2.43,1,1,0,0,0,.89.44A1.05,1.05,0,0,0,73.49,74.21Z" />
            <path class="cls-2" d="M79,67.61a.53.53,0,0,1-.17-.41.52.52,0,0,1,.17-.4.54.54,0,0,1,.42-.17.57.57,0,0,1,.42.16.52.52,0,0,1,.18.4.56.56,0,0,1-.18.42.6.6,0,0,1-.84,0Zm0,1.49h.81v6H79Z" />
            <path class="cls-2" d="M86.94,69.71a2.56,2.56,0,0,1,.67,1.91v3.49H86.8V71.7a2,2,0,0,0-.47-1.43A1.79,1.79,0,0,0,85,69.78a2.08,2.08,0,0,0-1.54.58,2.23,2.23,0,0,0-.56,1.6v3.15h-.81v-6h.77v1.11a2.38,2.38,0,0,1,.92-.86,3,3,0,0,1,1.37-.3A2.43,2.43,0,0,1,86.94,69.71Z" />
            <path class="cls-2" d="M90.74,74.78a2.84,2.84,0,0,1-1.11-1.09,3.23,3.23,0,0,1-.39-1.59,3.15,3.15,0,0,1,.39-1.57,2.84,2.84,0,0,1,1.11-1.09,3.23,3.23,0,0,1,1.59-.39,3.09,3.09,0,0,1,1.39.3,2.38,2.38,0,0,1,1,.89l-.61.41a1.86,1.86,0,0,0-.75-.67,2.25,2.25,0,0,0-1-.22,2.42,2.42,0,0,0-1.17.29,2,2,0,0,0-.81.83,2.59,2.59,0,0,0-.29,1.22,2.54,2.54,0,0,0,.29,1.23,2,2,0,0,0,.81.83,2.42,2.42,0,0,0,1.17.29,2.25,2.25,0,0,0,1-.22,1.76,1.76,0,0,0,.75-.66l.61.41a2.38,2.38,0,0,1-1,.89,3.15,3.15,0,0,1-1.39.3A3.23,3.23,0,0,1,90.74,74.78Z" />
            <path class="cls-2" d="M97.91,69.36a2.84,2.84,0,0,1,1.4-.31v.79h-.2a1.91,1.91,0,0,0-1.48.58,2.33,2.33,0,0,0-.54,1.64v3.06h-.81v-6h.78v1.17A2,2,0,0,1,97.91,69.36Z" />
            <path class="cls-2" d="M106,72.36h-5a2.17,2.17,0,0,0,.72,1.51,2.39,2.39,0,0,0,1.65.58,2.7,2.7,0,0,0,1-.2,2.23,2.23,0,0,0,.81-.59l.46.53a2.62,2.62,0,0,1-1,.73,3.53,3.53,0,0,1-1.32.25,3.3,3.3,0,0,1-1.65-.4,2.84,2.84,0,0,1-1.11-1.09,3.07,3.07,0,0,1-.4-1.58,3.26,3.26,0,0,1,.38-1.57,2.82,2.82,0,0,1,1.05-1.09,3.1,3.1,0,0,1,3,0,2.84,2.84,0,0,1,1,1.08A3.26,3.26,0,0,1,106,72.1Zm-4.36-2.06a2.2,2.2,0,0,0-.67,1.45h4.27a2.24,2.24,0,0,0-.67-1.45,2.06,2.06,0,0,0-1.47-.55A2,2,0,0,0,101.59,70.3Z" />
            <path class="cls-2" d="M111.36,69.64a2.26,2.26,0,0,1,.63,1.74v3.73h-.78v-.94a1.85,1.85,0,0,1-.8.74,2.94,2.94,0,0,1-1.27.26,2.48,2.48,0,0,1-1.6-.48,1.67,1.67,0,0,1,0-2.51,2.74,2.74,0,0,1,1.77-.46h1.91v-.37a1.53,1.53,0,0,0-.44-1.18,1.79,1.79,0,0,0-1.27-.41,3.09,3.09,0,0,0-1.09.19,2.71,2.71,0,0,0-.91.52l-.36-.61a3.15,3.15,0,0,1,1.1-.6,4.23,4.23,0,0,1,1.34-.21A2.56,2.56,0,0,1,111.36,69.64Zm-.91,4.57a1.93,1.93,0,0,0,.73-.9v-1h-1.89c-1,0-1.54.36-1.54,1.08a1,1,0,0,0,.4.83,1.84,1.84,0,0,0,1.12.3A2.15,2.15,0,0,0,110.45,74.21Z" />
            <path class="cls-2" d="M114.41,75a3,3,0,0,1-1-.53l.37-.64a3.13,3.13,0,0,0,1,.48,3.66,3.66,0,0,0,1.19.19,2.24,2.24,0,0,0,1.21-.26.8.8,0,0,0,.4-.72.63.63,0,0,0-.22-.52,1.44,1.44,0,0,0-.55-.29,8.41,8.41,0,0,0-.88-.19,8.46,8.46,0,0,1-1.17-.28,1.77,1.77,0,0,1-.77-.48,1.36,1.36,0,0,1-.31-1,1.49,1.49,0,0,1,.63-1.24,2.82,2.82,0,0,1,1.75-.48,4.29,4.29,0,0,1,1.17.16,3.26,3.26,0,0,1,1,.4l-.36.65a3,3,0,0,0-1.77-.51,2.06,2.06,0,0,0-1.17.27.85.85,0,0,0-.4.72.7.7,0,0,0,.23.55,1.34,1.34,0,0,0,.55.31c.22.06.53.13.91.2a10.84,10.84,0,0,1,1.16.27,1.65,1.65,0,0,1,.74.47,1.26,1.26,0,0,1,.31.91,1.46,1.46,0,0,1-.66,1.26,3.16,3.16,0,0,1-1.82.46A4.65,4.65,0,0,1,114.41,75Z" />
            <path class="cls-2" d="M125,72.36h-5a2.1,2.1,0,0,0,.72,1.51,2.35,2.35,0,0,0,1.64.58,2.63,2.63,0,0,0,1-.2,2.23,2.23,0,0,0,.81-.59l.46.53a2.62,2.62,0,0,1-1,.73,3.53,3.53,0,0,1-1.32.25,3.24,3.24,0,0,1-1.64-.4,2.8,2.8,0,0,1-1.12-1.09,3.34,3.34,0,0,1,0-3.15,2.69,2.69,0,0,1,1.05-1.09,3.08,3.08,0,0,1,3,0,2.77,2.77,0,0,1,1,1.08A3.27,3.27,0,0,1,125,72.1Zm-4.37-2.06a2.19,2.19,0,0,0-.66,1.45h4.26a2.2,2.2,0,0,0-.67-1.45,2.23,2.23,0,0,0-2.93,0Z" />
            <path class="cls-2" d="M129.68,67.61a.57.57,0,0,1-.17-.41.58.58,0,0,1,.59-.57.6.6,0,0,1,.43.16.54.54,0,0,1,.17.4.59.59,0,0,1-.17.42.61.61,0,0,1-.43.17A.61.61,0,0,1,129.68,67.61Zm0,1.49h.81v6h-.81Z" />
            <path class="cls-2" d="M137.63,69.71a2.56,2.56,0,0,1,.67,1.91v3.49h-.81V71.7a2,2,0,0,0-.47-1.43,1.79,1.79,0,0,0-1.34-.49,2.06,2.06,0,0,0-1.53.58,2.19,2.19,0,0,0-.57,1.6v3.15h-.81v-6h.78v1.11a2.25,2.25,0,0,1,.92-.86,3,3,0,0,1,1.36-.3A2.43,2.43,0,0,1,137.63,69.71Z" />
            <path class="cls-2" d="M148.14,69.43a2.85,2.85,0,0,1,1.07,1.08,3.23,3.23,0,0,1,.39,1.59,3.18,3.18,0,0,1-.39,1.59,2.8,2.8,0,0,1-1.07,1.09,3.06,3.06,0,0,1-1.53.39,2.87,2.87,0,0,1-1.36-.32,2.47,2.47,0,0,1-1-.93v1.19h-.77V66.63h.81v3.61a2.56,2.56,0,0,1,1-.89,2.92,2.92,0,0,1,1.33-.3A3.15,3.15,0,0,1,148.14,69.43Zm-.45,4.73a2.15,2.15,0,0,0,.81-.83,2.73,2.73,0,0,0,0-2.45,2.15,2.15,0,0,0-.81-.83,2.41,2.41,0,0,0-2.29,0,2.06,2.06,0,0,0-.8.83,2.73,2.73,0,0,0,0,2.45,2.06,2.06,0,0,0,.8.83,2.41,2.41,0,0,0,2.29,0Z" />
            <path class="cls-2" d="M151.25,67.61a.53.53,0,0,1-.17-.41.52.52,0,0,1,.17-.4.54.54,0,0,1,.42-.17.57.57,0,0,1,.42.16.52.52,0,0,1,.18.4.56.56,0,0,1-.18.42.6.6,0,0,1-.84,0Zm0,1.49h.81v6h-.81Z" />
            <path class="cls-2" d="M155.23,74.78a2.81,2.81,0,0,1-1.1-1.09,3.13,3.13,0,0,1-.4-1.59,3.06,3.06,0,0,1,.4-1.57,2.81,2.81,0,0,1,1.1-1.09,3.24,3.24,0,0,1,1.6-.39,3.12,3.12,0,0,1,1.39.3,2.29,2.29,0,0,1,1,.89l-.6.41a1.88,1.88,0,0,0-.76-.67,2.18,2.18,0,0,0-1-.22,2.36,2.36,0,0,0-1.17.29,2.11,2.11,0,0,0-.82.83,2.59,2.59,0,0,0-.29,1.22,2.54,2.54,0,0,0,.29,1.23,2.11,2.11,0,0,0,.82.83,2.36,2.36,0,0,0,1.17.29,2.18,2.18,0,0,0,1-.22,1.79,1.79,0,0,0,.76-.66l.6.41a2.32,2.32,0,0,1-1,.89,3.11,3.11,0,0,1-1.38.3A3.24,3.24,0,0,1,155.23,74.78Z" />
            <path class="cls-2" d="M165.74,69.1l-3,6.73a2.85,2.85,0,0,1-.85,1.2,1.86,1.86,0,0,1-1.15.36,2.38,2.38,0,0,1-.81-.14,1.8,1.8,0,0,1-.66-.41l.38-.61a1.49,1.49,0,0,0,1.1.46,1.11,1.11,0,0,0,.7-.23,1.9,1.9,0,0,0,.54-.78l.27-.58-2.69-6h.85l2.26,5.11,2.26-5.11Z" />
            <path class="cls-2" d="M167.61,74.78a2.84,2.84,0,0,1-1.11-1.09,3.23,3.23,0,0,1-.4-1.59,3.16,3.16,0,0,1,.4-1.57,2.84,2.84,0,0,1,1.11-1.09,3.23,3.23,0,0,1,1.59-.39,3.12,3.12,0,0,1,1.39.3,2.38,2.38,0,0,1,1,.89l-.61.41a1.92,1.92,0,0,0-.75-.67,2.25,2.25,0,0,0-1-.22,2.42,2.42,0,0,0-1.17.29,2,2,0,0,0-.81.83,2.47,2.47,0,0,0-.29,1.22,2.43,2.43,0,0,0,.29,1.23,2,2,0,0,0,.81.83,2.42,2.42,0,0,0,1.17.29,2.25,2.25,0,0,0,1-.22,1.82,1.82,0,0,0,.75-.66l.61.41a2.35,2.35,0,0,1-1,.89,3.11,3.11,0,0,1-1.38.3A3.23,3.23,0,0,1,167.61,74.78Z" />
            <path class="cls-2" d="M173.05,66.63h.82v8.48h-.82Z" />
            <path class="cls-2" d="M181.37,72.36h-5a2.1,2.1,0,0,0,.72,1.51,2.35,2.35,0,0,0,1.64.58,2.63,2.63,0,0,0,1-.2,2.15,2.15,0,0,0,.81-.59l.46.53a2.62,2.62,0,0,1-1,.73,3.53,3.53,0,0,1-1.32.25,3.27,3.27,0,0,1-1.64-.4,2.8,2.8,0,0,1-1.12-1.09,3.34,3.34,0,0,1,0-3.15A2.69,2.69,0,0,1,177,69.44a2.94,2.94,0,0,1,1.5-.39,2.89,2.89,0,0,1,1.5.39,2.77,2.77,0,0,1,1,1.08,3.27,3.27,0,0,1,.38,1.58ZM177,70.3a2.19,2.19,0,0,0-.66,1.45h4.26a2.15,2.15,0,0,0-.67-1.45,2.23,2.23,0,0,0-2.93,0Z" />
            <path class="cls-2" d="M191.45,69.1v6h-.77V74a2.34,2.34,0,0,1-.88.86,2.7,2.7,0,0,1-1.29.3A2.33,2.33,0,0,1,186,72.58V69.1h.81v3.4a2,2,0,0,0,.47,1.45,1.78,1.78,0,0,0,1.33.49,2,2,0,0,0,1.5-.58,2.23,2.23,0,0,0,.55-1.61V69.1Z" />
            <path class="cls-2" d="M193.94,75a3.22,3.22,0,0,1-1.05-.53l.37-.64a3.13,3.13,0,0,0,1,.48,3.66,3.66,0,0,0,1.19.19,2.31,2.31,0,0,0,1.22-.26.81.81,0,0,0,.39-.72.63.63,0,0,0-.22-.52,1.39,1.39,0,0,0-.54-.29c-.23-.06-.52-.13-.88-.19a8.66,8.66,0,0,1-1.18-.28,1.73,1.73,0,0,1-.76-.48,1.36,1.36,0,0,1-.32-1,1.49,1.49,0,0,1,.63-1.24,2.82,2.82,0,0,1,1.75-.48,4.29,4.29,0,0,1,1.17.16,3,3,0,0,1,1,.4l-.36.65a3,3,0,0,0-1.77-.51,2.06,2.06,0,0,0-1.17.27.87.87,0,0,0-.4.72.7.7,0,0,0,.23.55,1.41,1.41,0,0,0,.55.31c.22.06.53.13.92.2a10.57,10.57,0,0,1,1.15.27,1.65,1.65,0,0,1,.74.47,1.26,1.26,0,0,1,.31.91,1.48,1.48,0,0,1-.65,1.26,3.21,3.21,0,0,1-1.83.46A4.65,4.65,0,0,1,193.94,75Z" />
            <path class="cls-2" d="M204.56,72.36h-5a2.1,2.1,0,0,0,.72,1.51,2.35,2.35,0,0,0,1.64.58,2.63,2.63,0,0,0,1-.2,2.18,2.18,0,0,0,.82-.59l.45.53a2.55,2.55,0,0,1-1,.73,3.53,3.53,0,0,1-1.32.25,3.27,3.27,0,0,1-1.64-.4,2.71,2.71,0,0,1-1.11-1.09,3.07,3.07,0,0,1-.4-1.58,3.15,3.15,0,0,1,.38-1.57,2.76,2.76,0,0,1,1.05-1.09,2.94,2.94,0,0,1,1.5-.39,2.89,2.89,0,0,1,1.5.39,2.77,2.77,0,0,1,1,1.08,3.27,3.27,0,0,1,.38,1.58ZM200.2,70.3a2.15,2.15,0,0,0-.67,1.45h4.26a2.15,2.15,0,0,0-.67-1.45,2.21,2.21,0,0,0-2.92,0Z" />
            <path class="cls-2" d="M209.21,67.61a.57.57,0,0,1-.17-.41.56.56,0,0,1,.17-.4.57.57,0,0,1,.43-.17.58.58,0,0,1,.42.16.54.54,0,0,1,.17.4.58.58,0,0,1-.59.59A.61.61,0,0,1,209.21,67.61Zm0,1.49H210v6h-.82Z" />
            <path class="cls-2" d="M217.17,69.71a2.6,2.6,0,0,1,.67,1.91v3.49H217V71.7a2,2,0,0,0-.47-1.43,1.77,1.77,0,0,0-1.33-.49,2.08,2.08,0,0,0-1.54.58,2.19,2.19,0,0,0-.57,1.6v3.15h-.81v-6h.78v1.11a2.31,2.31,0,0,1,.92-.86,3,3,0,0,1,1.37-.3A2.46,2.46,0,0,1,217.17,69.71Z" />
            <path class="cls-2" d="M228,74.38v.73h-5.62v-.58l3.33-3.26a4.3,4.3,0,0,0,.85-1.07,2,2,0,0,0,.22-.91,1.34,1.34,0,0,0-.48-1.1,2.13,2.13,0,0,0-1.39-.4,2.71,2.71,0,0,0-2.18.9l-.59-.51a3,3,0,0,1,1.2-.84A4.24,4.24,0,0,1,225,67a3,3,0,0,1,1.94.58,1.93,1.93,0,0,1,.71,1.58,2.76,2.76,0,0,1-.27,1.19,5.07,5.07,0,0,1-1,1.31l-2.73,2.68Z" />
            <path class="cls-2" d="M230.49,74.69a3.2,3.2,0,0,1-1.13-1.41,5.95,5.95,0,0,1,0-4.34,3.2,3.2,0,0,1,1.13-1.41,3,3,0,0,1,3.3,0,3.22,3.22,0,0,1,1.14,1.41,5.95,5.95,0,0,1,0,4.34,3.22,3.22,0,0,1-1.14,1.41,3,3,0,0,1-3.3,0Zm2.88-.65a2.57,2.57,0,0,0,.83-1.14,4.75,4.75,0,0,0,.3-1.79,4.84,4.84,0,0,0-.3-1.8,2.59,2.59,0,0,0-.83-1.13,2,2,0,0,0-1.23-.39,2,2,0,0,0-1.23.39,2.59,2.59,0,0,0-.83,1.13,4.85,4.85,0,0,0-.29,1.8,4.76,4.76,0,0,0,.29,1.79,2.57,2.57,0,0,0,.83,1.14,2,2,0,0,0,1.23.39A2,2,0,0,0,233.37,74Z" />
            <path class="cls-2" d="M242,74.38v.73h-5.61v-.58l3.33-3.26a4.3,4.3,0,0,0,.85-1.07,2,2,0,0,0,.22-.91,1.34,1.34,0,0,0-.48-1.1,2.13,2.13,0,0,0-1.39-.4,2.74,2.74,0,0,0-2.19.9l-.58-.51a3,3,0,0,1,1.19-.84A4.29,4.29,0,0,1,239,67a2.94,2.94,0,0,1,1.93.58,1.91,1.91,0,0,1,.72,1.58,2.63,2.63,0,0,1-.28,1.19,4.86,4.86,0,0,1-1,1.31l-2.72,2.68Z" />
            <path class="cls-2" d="M244.49,74.69a3.22,3.22,0,0,1-1.14-1.41,6.09,6.09,0,0,1,0-4.34,3.22,3.22,0,0,1,1.14-1.41,3,3,0,0,1,3.3,0,3.36,3.36,0,0,1,1.14,1.41,5.95,5.95,0,0,1,0,4.34,3.36,3.36,0,0,1-1.14,1.41,3,3,0,0,1-3.3,0Zm2.88-.65a2.57,2.57,0,0,0,.83-1.14,5,5,0,0,0,.29-1.79,5.07,5.07,0,0,0-.29-1.8,2.59,2.59,0,0,0-.83-1.13,2,2,0,0,0-1.23-.39,2,2,0,0,0-1.23.39,2.52,2.52,0,0,0-.83,1.13,4.84,4.84,0,0,0-.3,1.8,4.75,4.75,0,0,0,.3,1.79,2.49,2.49,0,0,0,.83,1.14,2,2,0,0,0,1.23.39A2,2,0,0,0,247.37,74Z" />
            <path class="cls-2" d="M139.93,83.36a2.3,2.3,0,0,1,.63,1.75v3.72h-.78V87.9a1.89,1.89,0,0,1-.8.73,2.94,2.94,0,0,1-1.27.26,2.48,2.48,0,0,1-1.6-.48,1.56,1.56,0,0,1-.59-1.27,1.52,1.52,0,0,1,.55-1.23,2.68,2.68,0,0,1,1.77-.47h1.91v-.37a1.56,1.56,0,0,0-.43-1.18,1.81,1.81,0,0,0-1.27-.41,3.34,3.34,0,0,0-1.1.19,3,3,0,0,0-.91.52l-.36-.6a3.15,3.15,0,0,1,1.1-.6,4,4,0,0,1,1.35-.22A2.55,2.55,0,0,1,139.93,83.36ZM139,87.94a1.9,1.9,0,0,0,.73-.91V86h-1.89c-1,0-1.54.36-1.54,1.08a1,1,0,0,0,.4.83,1.84,1.84,0,0,0,1.12.3A2.14,2.14,0,0,0,139,87.94Z" />
            <path class="cls-2" d="M142.77,80.35h.81v8.48h-.81Z" />
            <path class="cls-2" d="M146.74,88.5a3,3,0,0,1-1.1-1.09,3.12,3.12,0,0,1-.4-1.58,3.07,3.07,0,0,1,.4-1.58,2.81,2.81,0,0,1,1.1-1.09,3.11,3.11,0,0,1,1.56-.39,3.15,3.15,0,0,1,1.57.39A2.79,2.79,0,0,1,151,84.25a3.07,3.07,0,0,1,.4,1.58,3.12,3.12,0,0,1-.4,1.58,2.92,2.92,0,0,1-1.09,1.09,3.15,3.15,0,0,1-1.57.39A3.11,3.11,0,0,1,146.74,88.5Zm2.71-.62a2,2,0,0,0,.8-.83,2.82,2.82,0,0,0,0-2.45,2.13,2.13,0,0,0-.8-.83,2.31,2.31,0,0,0-1.15-.29,2.34,2.34,0,0,0-1.15.29,2.28,2.28,0,0,0-.8.83,2.73,2.73,0,0,0,0,2.45,2.13,2.13,0,0,0,.8.83,2.34,2.34,0,0,0,1.15.29A2.31,2.31,0,0,0,149.45,87.88Z" />
            <path class="cls-2" d="M157.88,83.43a2.56,2.56,0,0,1,.67,1.92v3.48h-.81v-3.4a2,2,0,0,0-.47-1.43,1.75,1.75,0,0,0-1.34-.49,2.08,2.08,0,0,0-1.54.57,2.23,2.23,0,0,0-.56,1.6v3.15H153v-6h.78v1.11a2.22,2.22,0,0,1,.92-.85,3,3,0,0,1,1.37-.31A2.46,2.46,0,0,1,157.88,83.43Z" />
            <path class="cls-2" d="M166,86.08h-5a2.14,2.14,0,0,0,.73,1.51,2.35,2.35,0,0,0,1.64.58,2.66,2.66,0,0,0,1-.2,2.23,2.23,0,0,0,.81-.59l.46.53a2.62,2.62,0,0,1-1,.73,3.63,3.63,0,0,1-3-.14,2.93,2.93,0,0,1-1.12-1.09,3.22,3.22,0,0,1-.4-1.58,3.16,3.16,0,0,1,.39-1.58,2.69,2.69,0,0,1,1.05-1.09,3.08,3.08,0,0,1,3,0,2.77,2.77,0,0,1,1,1.08,3.28,3.28,0,0,1,.38,1.59Zm-4.37-2a2.22,2.22,0,0,0-.67,1.44h4.27a2.17,2.17,0,0,0-.67-1.44,2.2,2.2,0,0,0-2.93,0Z" />
            <text class="cls-3" transform="translate(55.17 50.89)">60 billion NOK</text>
            <text class="cls-4" transform="translate(82.28 17.82)">
                Ma
                <tspan class="cls-5" x="32.96" y="0">r</tspan>
                <tspan class="cls-6" x="41.91" y="0">k</tspan>
                <tspan x="55.26" y="0">et si</tspan>
                <tspan class="cls-7" x="100.99" y="0">z</tspan>
                <tspan x="112.22" y="0">e: </tspan>
            </text>
            <path class="cls-1" d="M229,285.28a68.34,68.34,0,1,1-136.67,0c0-.89,0-1.79,0-2.67a2.25,2.25,0,0,1,2.4-2.16c25.5,1.85,65.88,4.83,65.88,4.83V218.09a1.13,1.13,0,0,1,1.14-1.13A68.33,68.33,0,0,1,229,285.28" />
            <path class="cls-8" d="M155.57,279.32s-41.07-3-66.53-4.88a1.62,1.62,0,0,1-1.49-1.77,68.36,68.36,0,0,1,64.68-61.61Z" />
            <path d="M155.57,195.16v84.16l-4.17-83.95a.21.21,0,0,1,.2-.21Z" />
            <text class="cls-3" transform="translate(28.74 132.89)">
                <tspan class="cls-9">0</tspan>
                <tspan class="cls-10" x="17.1" y="0">.</tspan>
                <tspan x="24.44" y="0">4 %</tspan>
            </text>
            <text class="cls-11" transform="translate(0 148.61)">
                of
                <tspan class="cls-12" x="10.85" y="0">r</tspan>
                <tspan class="cls-13" x="14.31" y="0">e</tspan>
                <tspan class="cls-14" x="19.36" y="0">a</tspan>
                <tspan class="cls-15" x="24.46" y="0">c</tspan>
                <tspan x="29.27" y="0">hable eu</tspan>
                <tspan class="cls-16" x="66.38" y="0">r</tspan>
                <tspan x="69.84" y="0">op</tspan>
                <tspan class="cls-13" x="80.85" y="0">e</tspan>
                <tspan x="85.9" y="0">an ma</tspan>
                <tspan class="cls-15" x="112.58" y="0">r</tspan>
                <tspan class="cls-17" x="116.08" y="0">k</tspan>
                <tspan x="121.29" y="0">et</tspan>
            </text>
            <path class="cls-18" d="M68.31,197.05c1.17,14.58,15.52,18,27.92,15.81,19.84-3.54,26.65-28.5,39.1-28.22a9.66,9.66,0,0,1,3.5.77" />
            <polygon class="cls-19" points="144.68 189.83 133.81 187.31 138.25 185.28 138.68 180.43 144.68 189.83" />
            <text class="cls-20" transform="translate(28.74 167.41)">
                OUR FIR
                <tspan class="cls-21" x="35.65" y="0">S</tspan>
                <tspan class="cls-22" x="40.79" y="0">T G</tspan>
                <tspan class="cls-23" x="54.49" y="0">O</tspan>
                <tspan x="61.32" y="0">AL</tspan>
            </text>
            <text class="cls-24" transform="translate(211.6 168)">
                <tspan xml:space="preserve"> million NOK</tspan>
            </text>
            <text class="cls-25" transform="translate(18.17 185.73)">
                325,000 bi
                <tspan class="cls-26" x="67.37" y="0">k</tspan>
                <tspan x="74.22" y="0">e</tspan>
                <tspan class="cls-27" x="81.15" y="0">s</tspan>
                <tspan x="87.11" y="0">*</tspan>
            </text>
            <line class="cls-28" x1="141.58" y1="141.8" x2="169.42" y2="141.8" />
            <line class="cls-28" x1="141.58" y1="150.16" x2="169.42" y2="150.16" />
            <text class="cls-3" transform="translate(219.83 150.94)">
                2
                <tspan class="cls-29" x="15.26" y="0">2</tspan>
                <tspan class="cls-30" x="30.5" y="0">0</tspan>
            </text>
            <text class="cls-31" transform="translate(144.56 309.52)">
                256
                <tspan x="-11.89" y="18.86">million</tspan>
            </text>
            <text class="cls-32" transform="translate(82.67 420.36)">
                *
                <tspan class="cls-33" x="10.09" y="0">T</tspan>
                <tspan class="cls-34" x="18.71" y="0">h</tspan>
                <tspan class="cls-33" x="28.26" y="0">e Shima</tspan>
                <tspan class="cls-34" x="86.08" y="0">n</tspan>
                <tspan class="cls-33" x="95.63" y="0">o ef</tspan>
                <tspan class="cls-35" x="122.83" y="0">f</tspan>
                <tspan class="cls-33" x="128.26" y="0">e</tspan>
                <tspan class="cls-36" x="136.97" y="0">c</tspan>
                <tspan class="cls-33" x="145.27" y="0">t</tspan>
            </text>
            <text class="cls-37" transform="translate(40.28 444.39)">
                <tspan class="cls-38">A</tspan>
                <tspan x="6.99" y="0">t 325.000 bikes we reach critical mass resulting </tspan>
                <tspan x="11.42" y="13.02">in a high OEM uptake f</tspan>
                <tspan class="cls-39" x="119.7" y="13.02">r</tspan>
                <tspan x="123.27" y="13.02">om international bike </tspan>
                <tspan x="-4.68" y="26.05">b</tspan>
                <tspan class="cls-40" x="1.4" y="26.05">r</tspan>
                <tspan x="4.87" y="26.05">ands ue </tspan>
                <tspan class="cls-39" x="45.58" y="26.05">t</tspan>
                <tspan x="49.02" y="26.05">o the competitive nature of the industry. </tspan>
                <tspan x="53.47" y="39.07">Just as Shimano achi</tspan>
                <tspan class="cls-41" x="156.98" y="39.07">e</tspan>
                <tspan x="162.66" y="39.07">ved.</tspan>
            </text>
        </g>
    </g>
</svg>