<svg xmlns="http://www.w3.org/2000/svg" xmlns:xlink="http://www.w3.org/1999/xlink" viewBox="0 0 335.2 283.3">
    <defs>
        <style>.cls-1{fill:none;}.cls-2{font-size:25.48px;font-family:Montserrat-ExtraBold, Montserrat;font-weight:800;}.cls-2,.cls-21{fill:#00a7e1;}.cls-3{letter-spacing:0em;}.cls-4{font-size:19.04px;font-family:Montserrat-Bold, Montserrat;font-weight:700;}.cls-19,.cls-4{fill:#454544;}.cls-5{letter-spacing:-0.01em;}.cls-6{letter-spacing:-0.02em;}.cls-7{letter-spacing:0em;}.cls-8{letter-spacing:-0.02em;}.cls-9{letter-spacing:0em;}.cls-10{font-size:14.43px;fill:#1a1a1a;font-family:UniSansRegular, Uni Sans;}.cls-11{letter-spacing:-0.02em;}.cls-12{font-size:8.08px;font-family:UniSansBold, Uni Sans;}.cls-13{letter-spacing:0em;}.cls-14{letter-spacing:0em;}.cls-15{fill:#39a54a;}.cls-16{letter-spacing:-0.01em;}.cls-17{fill:red;}.cls-18{fill:#25a5de;}.cls-20{clip-path:url(#clip-path);}.cls-22{letter-spacing:-0.01em;}.cls-23{letter-spacing:-0.01em;}.cls-24{letter-spacing:-0.01em;}.cls-25{fill:#ff0;}.cls-26{clip-path:url(#clip-path-3);}</style>
        <clipPath id="clip-path">
            <rect class="cls-1" x="118.69" y="75.42" width="25.93" height="9.14" />
        </clipPath>
        <clipPath id="clip-path-3">
            <rect class="cls-1" x="3.72" y="114.76" width="23.64" height="8.33" />
        </clipPath>
    </defs>
    <g id="Layer_2" data-name="Layer 2">
        <g id="Layer_1-2" data-name="Layer 1">
            <text class="cls-2" transform="translate(49.62 49.34)">
                &gt;
                <tspan class="cls-3" x="15.52" y="0">2</tspan>
                <tspan x="30.76" y="0">00 billion NOK</tspan>
            </text>
            <text class="cls-4" transform="translate(78.26 16.19)">
                <tspan class="cls-5">P</tspan>
                <tspan x="13.73" y="0">o</tspan>
                <tspan class="cls-6" x="26.2" y="0">t</tspan>
                <tspan x="34.16" y="0">ential ma</tspan>
                <tspan class="cls-7" x="127.94" y="0">r</tspan>
                <tspan class="cls-8" x="136.07" y="0">k</tspan>
                <tspan class="cls-9" x="148.2" y="0">et</tspan>
            </text>
            <text class="cls-10" transform="translate(125.97 218.45)">
                Wheelchai
                <tspan class="cls-11" x="62.82" y="0">r</tspan>
            </text>
            <text class="cls-12" transform="translate(148.55 239.57)">
                In p
                <tspan class="cls-13" x="12.02" y="0">r</tspan>
                <tspan class="cls-14" x="14.73" y="0">oduction</tspan>
            </text>
            <circle class="cls-15" cx="131.65" cy="236.43" r="6.21" />
            <text class="cls-10" transform="translate(266.19 259.12)">
                Scoote
                <tspan class="cls-16" x="40.66" y="0">r</tspan>
                <tspan x="45.09" y="0">s</tspan>
            </text>
            <text class="cls-12" transform="translate(278.37 280.23)">In planning</text>
            <circle class="cls-17" cx="266.95" cy="277.09" r="6.21" />
            <image width="400" height="400" transform="translate(209.08 116.29) scale(0.28)" xlink:href="./Okai-electric-scooter-es400b-menu_1600x.png" />
            <image width="232" height="203" transform="translate(234.25 142.84) scale(0.44)" xlink:href="newMarkets1.png" />
            <g id="traction_2020_PantheraOrtanica_Test6.82_CMYK.psd" data-name="traction 2020 PantheraOrtanica Test6.82_CMYK.psd">
                <image width="1758" height="1644" transform="translate(94.08 72.65) scale(0.08)" xlink:href="newMarkets2.png" />
            </g>
            <path class="cls-18" d="M167.94,104.82l5.28.64a.2.2,0,0,1,.17.25l-1.18,5a.2.2,0,0,1-.36.08l-.75-1a.21.21,0,0,0-.29,0c-3.5,2.6-1.66,5.13-.56,6.2a.2.2,0,0,1-.2.34,6.57,6.57,0,0,1-4.21-4.26c-.37-1.61.18-3.55,2.54-5.65a.2.2,0,0,0,0-.26l-.66-.93A.2.2,0,0,1,167.94,104.82Z" />
            <path class="cls-19" d="M117,88.35v4.2h-1.19v-4.2h-1.64V87.21h4.32v1.14Z" />
            <path class="cls-19" d="M120.59,90.56h-.43v2H119V87.21h2.12a1.63,1.63,0,0,1,1.74,1.67,1.53,1.53,0,0,1-1.06,1.51l1.09,2.16h-1.32Zm.28-1c.49,0,.75-.27.75-.65s-.26-.65-.75-.65h-.71v1.3Z" />
            <path class="cls-19" d="M126.67,91.47h-2.06l-.39,1.08H123l1.9-5.34h1.49l2,5.33H127ZM125,90.38h1.3l-.65-1.84Z" />
            <path class="cls-19" d="M128.05,89.9a2.72,2.72,0,0,1,2.76-2.8,3,3,0,0,0,2.15-.66c.19-.1.3.07.18.25a5,5,0,0,1-.76,1,2.31,2.31,0,0,1-1.57.56,1.53,1.53,0,0,0-1.53,1.64,1.51,1.51,0,0,0,1.54,1.58,1.35,1.35,0,0,0,1.4-1l1.14.33a2.47,2.47,0,0,1-2.54,1.87A2.69,2.69,0,0,1,128.05,89.9Z" />
            <path class="cls-19" d="M135.18,88.35v4.2H134v-4.2h-1.33a7,7,0,0,0,.86-1.13l3.31,0v1.14Z" />
            <path class="cls-19" d="M137.13,92.55V87.21h1.2v5.34Z" />
            <path class="cls-19" d="M141.39,87.08a2.79,2.79,0,1,1-2.78,2.79A2.71,2.71,0,0,1,141.39,87.08Zm0,4.39a1.62,1.62,0,1,0-1.54-1.61A1.51,1.51,0,0,0,141.39,91.47Z" />
            <path class="cls-19" d="M147.83,92.55,145.63,89v3.51h-1.18V87.21h1.44l2,3.25V87.21h1.19v5.34Z" />
            <g id="Artwork_8" data-name="Artwork 8">
                <g class="cls-20">
                    <g class="cls-20">
                        <path class="cls-19" d="M131.54,76.3a6.22,6.22,0,0,1-4.87.22.05.05,0,0,0-.06.08,4.29,4.29,0,0,0,3.16,1.27,0,0,0,0,1,0,.06,9.4,9.4,0,0,0-1.62,6.58.05.05,0,0,0,.1,0,11.28,11.28,0,0,1,3.16-6.22,8.33,8.33,0,0,1,7-2.09.05.05,0,0,0,0-.09c-1.38-.84-4.22-1.07-6.9.19" />
                        <path class="cls-19" d="M139.54,78.07l-.23.83a.17.17,0,0,1-.18.14h-1a1.35,1.35,0,0,0-1.3,1l-.65,2.43a.19.19,0,0,1-.18.14h-.91a.14.14,0,0,1-.14-.17l.7-2.62a2.61,2.61,0,0,1,2.51-1.92h1.23a.14.14,0,0,1,.14.17" />
                        <path class="cls-19" d="M139.92,78.91l-.69,2.59a.88.88,0,0,0,.86,1.11h3.12a.61.61,0,0,0,.59-.44l.14-.53a.14.14,0,0,0-.14-.17h-3.15a.14.14,0,0,1-.13-.18l.11-.42h2.43a1.38,1.38,0,0,0,1.33-1l.19-.72a1,1,0,0,0-1-1.24h-2.38a1.36,1.36,0,0,0-1.32,1m3.11.84h-2.1l.15-.56a.2.2,0,0,1,.19-.15h2.1l-.15.57a.2.2,0,0,1-.19.14" />
                        <path class="cls-19" d="M135.88,78.09,132.29,84a.26.26,0,0,1-.23.13h-.88a.12.12,0,0,1-.11-.19l.5-.82a1.7,1.7,0,0,0,.25-1l-.26-3h0a8.09,8.09,0,0,1,1.15-1l.24,2.74,1.71-2.8a.26.26,0,0,1,.23-.13h.88a.12.12,0,0,1,.11.19" />
                        <path class="cls-21" d="M123.27,78.07l-.23.83a.18.18,0,0,1-.18.14h-1a1.35,1.35,0,0,0-1.3,1l-.65,2.43a.2.2,0,0,1-.19.14h-.91a.14.14,0,0,1-.13-.17l.7-2.62a2.6,2.6,0,0,1,2.51-1.92h1.23a.14.14,0,0,1,.14.17" />
                        <path class="cls-21" d="M127.35,77.9H125a1.36,1.36,0,0,0-1.32,1L123,81.5a.88.88,0,0,0,.85,1.11h3.56c0-.48.11-1,.14-1.14h-3.13a.14.14,0,0,1-.13-.18l.11-.42h2.43a1.37,1.37,0,0,0,1.32-1l.2-.71a1,1,0,0,0-1-1.24m-.4,1.71a.2.2,0,0,1-.19.14h-2.1l.15-.56A.19.19,0,0,1,125,79h2.09Z" />
                    </g>
                </g>
            </g>
            <text class="cls-10" transform="translate(36.61 256.05)">
                St
                <tspan class="cls-22" x="12.65" y="0">r</tspan>
                <tspan x="17.04" y="0">olle</tspan>
                <tspan class="cls-11" x="38.2" y="0">r</tspan>
            </text>
            <text class="cls-12" transform="translate(41.2 277.17)">
                In d
                <tspan class="cls-23" x="12.01" y="0">e</tspan>
                <tspan class="cls-24" x="15.86" y="0">v</tspan>
                <tspan x="19.84" y="0">elopment</tspan>
            </text>
            <circle class="cls-25" cx="29.32" cy="274.03" r="6.21" />
            <image width="123" height="151" transform="translate(10.42 114.78) scale(0.73 0.73)" xlink:href="newMarkets3.png" />
            <g id="Artwork_8-2" data-name="Artwork 8">
                <g class="cls-26">
                    <g class="cls-26">
                        <path class="cls-19" d="M15.44,115.56a5.67,5.67,0,0,1-4.44.2,0,0,0,0,0-.05.07A3.9,3.9,0,0,0,13.82,117s0,0,0,0a8.54,8.54,0,0,0-1.48,6,0,0,0,0,0,.09,0,10.28,10.28,0,0,1,2.88-5.67,7.59,7.59,0,0,1,6.36-1.9c.05,0,.08-.06,0-.09a7.21,7.21,0,0,0-6.29.17" />
                        <path class="cls-19" d="M22.74,117.18l-.21.76a.17.17,0,0,1-.17.12h-.89a1.23,1.23,0,0,0-1.19.92l-.6,2.21a.18.18,0,0,1-.16.13h-.83a.13.13,0,0,1-.13-.16l.64-2.39A2.38,2.38,0,0,1,21.49,117h1.12a.13.13,0,0,1,.13.16" />
                        <path class="cls-19" d="M23.08,118l-.63,2.35a.81.81,0,0,0,.79,1h2.85a.56.56,0,0,0,.53-.41l.13-.48a.13.13,0,0,0-.12-.16H23.75a.12.12,0,0,1-.12-.15l.1-.39H26a1.26,1.26,0,0,0,1.21-.93l.17-.65a.9.9,0,0,0-.87-1.13H24.29a1.26,1.26,0,0,0-1.21.93m2.84.76H24l.14-.52a.16.16,0,0,1,.16-.12h1.92l-.14.51a.18.18,0,0,1-.17.13" />
                        <path class="cls-19" d="M19.4,117.19l-3.27,5.37a.26.26,0,0,1-.21.12h-.81a.12.12,0,0,1-.1-.18l.46-.75a1.48,1.48,0,0,0,.22-.94l-.23-2.7h0a6.72,6.72,0,0,1,1.05-.92l.22,2.5,1.56-2.55a.22.22,0,0,1,.21-.12h.8a.11.11,0,0,1,.1.17" />
                        <path class="cls-21" d="M7.9,117.18l-.21.76a.17.17,0,0,1-.17.12H6.63a1.23,1.23,0,0,0-1.19.92l-.6,2.21a.18.18,0,0,1-.16.13H3.85a.13.13,0,0,1-.13-.16l.64-2.39A2.38,2.38,0,0,1,6.65,117H7.77a.13.13,0,0,1,.13.16" />
                        <path class="cls-21" d="M11.62,117H9.45a1.26,1.26,0,0,0-1.21.93l-.63,2.35a.81.81,0,0,0,.79,1h3.24c0-.44.1-.87.13-1H8.91a.12.12,0,0,1-.12-.15l.1-.39h2.22a1.25,1.25,0,0,0,1.21-.93l.17-.65a.89.89,0,0,0-.87-1.13m-.37,1.56a.18.18,0,0,1-.17.13H9.17l.14-.52a.17.17,0,0,1,.16-.13h1.92Z" />
                    </g>
                </g>
            </g>
            <path class="cls-19" d="M5.66,126.93a.13.13,0,0,1,.14.13v3a.34.34,0,0,1-.11.23,3.58,3.58,0,0,1-2.32.77,3.43,3.43,0,0,1,0-6.86,3.82,3.82,0,0,1,2,.55.15.15,0,0,1,.09.17L5,126.35a.14.14,0,0,1-.18.08,2.9,2.9,0,0,0-1.35-.33,1.58,1.58,0,0,0,0,3.14,1,1,0,0,0,.69-.18v-.55H3.25c-.09,0-.14,0-.15-.11L3,127.09a.13.13,0,0,1,.14-.16Zm-1.5,2v0Z" />
            <path class="cls-19" d="M11.76,130.81c.05.08,0,.15-.1.15h-2a.25.25,0,0,1-.21-.15l-1-2.08H8.35v2.1a.14.14,0,0,1-.15.13H6.56a.14.14,0,0,1-.14-.13v-6.31a.14.14,0,0,1,.14-.14H9a2.15,2.15,0,0,1,2.39,2.16,2,2,0,0,1-1.15,1.82Zm-2.85-3.7a.51.51,0,1,0,0-1H8.35v1Z" />
            <path class="cls-19" d="M13.9,124.38a.14.14,0,0,1,.14.14v6.31a.13.13,0,0,1-.14.13H12.25a.15.15,0,0,1-.14-.13v-6.31a.15.15,0,0,1,.14-.14Z" />
            <path class="cls-19" d="M17.05,124.38c1.64,0,2.62.91,2.62,2.27s-1,2.27-2.62,2.27h-.38v1.91a.15.15,0,0,1-.15.13H14.85a.15.15,0,0,1-.14-.13v-6.31a.15.15,0,0,1,.14-.14Zm.09,2.83a.56.56,0,0,0,0-1.12h-.49v1.12Z" />
            <path class="cls-19" d="M22.4,124.38c1.64,0,2.62.91,2.62,2.27s-1,2.27-2.62,2.27H22v1.91a.14.14,0,0,1-.15.13H20.2a.14.14,0,0,1-.13-.13v-6.31a.14.14,0,0,1,.13-.14Zm.09,2.83a.56.56,0,0,0,0-1.12H22v1.12Z" />
            <path class="cls-19" d="M31,124.38c.09,0,.15.07.11.15L29,128.33v2.5a.15.15,0,0,1-.14.13H27.21a.15.15,0,0,1-.14-.13v-2.5L25,124.53c-.05-.08,0-.15.1-.15h1.94a.26.26,0,0,1,.22.15l.77,1.72.76-1.72a.27.27,0,0,1,.22-.15Z" />
        </g>
    </g>
</svg>