<svg xmlns="http://www.w3.org/2000/svg" xmlns:xlink="http://www.w3.org/1999/xlink" viewBox="0 0 404.28 288.19"><defs><style>.cls-1,.cls-4,.cls-5{fill:none;}.cls-2{fill:#fff;}.cls-12,.cls-3{fill:#454544;}.cls-3{fill-rule:evenodd;}.cls-4,.cls-5{stroke:#00a7e1;stroke-miterlimit:10;}.cls-4{stroke-width:0.92px;}.cls-5{stroke-width:2.05px;}.cls-6,.cls-7{fill:#00a7e1;}.cls-7{font-size:11.26px;font-family:Roboto-Bold, Roboto;font-weight:700;}.cls-8{font-size:8.59px;font-family:Roboto-Regular, Roboto;}.cls-9{letter-spacing:-0.02em;}.cls-10{letter-spacing:-0.01em;}.cls-11{clip-path:url(#clip-path);}.cls-13{clip-path:url(#clip-path-3);}.cls-14{fill:#48484a;}.cls-15{clip-path:url(#clip-path-5);}.cls-16{clip-path:url(#clip-path-6);}.cls-17{clip-path:url(#clip-path-7);}</style><clipPath id="clip-path"><rect class="cls-1" x="20.69" y="58.33" width="45.95" height="16.19"/></clipPath><clipPath id="clip-path-3"><rect class="cls-1" x="223.96" y="132.38" width="27.47" height="17"/></clipPath><clipPath id="clip-path-5"><rect class="cls-1" x="329.29" y="140.12" width="74.99" height="46.4"/></clipPath><clipPath id="clip-path-6"><rect class="cls-1" x="329.29" y="140.12" width="74.99" height="46.4"/></clipPath><clipPath id="clip-path-7"><rect class="cls-1" x="15.84" y="11.26" width="21.11" height="7.44"/></clipPath></defs><g id="Layer_2" data-name="Layer 2"><g id="Layer_1-2" data-name="Layer 1"><path class="cls-2" d="M204.1,237.28l6.45-16.65a.41.41,0,0,1,.38-.25H237a.39.39,0,0,1,.4.39V249a.4.4,0,0,1-.53.37L204.33,237.8A.4.4,0,0,1,204.1,237.28Z"/><path class="cls-3" d="M210,223.13h42a.4.4,0,0,0,.4-.4v-3.16a.39.39,0,0,0-.4-.39H210a.39.39,0,0,0-.4.39v3.16A.4.4,0,0,0,210,223.13ZM257,236h-8.22a.41.41,0,0,1-.38-.29l-3-10.23a.39.39,0,0,1,.38-.51h6.54a.39.39,0,0,1,.36.23l4.67,10.23A.4.4,0,0,1,257,236Zm-41.42-.51,3-10.24a.4.4,0,0,1,.39-.28h7a.4.4,0,0,1,.39.46l-1.58,10.23a.41.41,0,0,1-.39.34h-8.42A.39.39,0,0,1,215.55,235.45Zm12.91-10.52h5.15a.39.39,0,0,1,.39.33l1.58,10.24a.39.39,0,0,1-.39.46h-8.31a.4.4,0,0,1-.39-.46l1.58-10.24A.4.4,0,0,1,228.46,224.93Zm8.87,10.69-1.58-10.23a.4.4,0,0,1,.39-.46h7a.39.39,0,0,1,.38.28l3,10.24a.4.4,0,0,1-.38.51h-8.42A.41.41,0,0,1,237.33,235.62ZM209.6,224.93h6.72a.4.4,0,0,1,.38.51l-3,10.23a.4.4,0,0,1-.38.29H205a.4.4,0,0,1-.36-.56l4.58-10.24A.4.4,0,0,1,209.6,224.93Zm48.46,17.42a.39.39,0,0,1-.4.39H204.35a.39.39,0,0,1-.4-.39v-4.29a.4.4,0,0,1,.4-.4h53.31a.4.4,0,0,1,.4.4Zm-7.59,17.7a1.25,1.25,0,0,1-1.25,1.25H231.4a1.25,1.25,0,0,1-1.25-1.25v-11a1.25,1.25,0,0,1,1.25-1.25h17.82a1.25,1.25,0,0,1,1.25,1.26Zm-43.65-15.2v20.88a.4.4,0,0,0,.4.4h4.62a.39.39,0,0,0,.39-.4V249.06a1.25,1.25,0,0,1,1.26-1.26h10.36a1.25,1.25,0,0,1,1.26,1.26v16.67a.4.4,0,0,0,.39.4h29.33a.4.4,0,0,0,.4-.4V244.85a.4.4,0,0,0-.4-.4H207.22A.4.4,0,0,0,206.82,244.85Zm13.5,14.5a1.52,1.52,0,1,1,1.51-1.51,1.52,1.52,0,0,1-1.51,1.51Zm-6,6.78H223a.4.4,0,0,0,.4-.4V249.91a.4.4,0,0,0-.4-.4h-8.66a.4.4,0,0,0-.4.4v15.82A.4.4,0,0,0,214.34,266.13Z"/><rect class="cls-4" x="189.31" y="112.04" width="86.09" height="81.82" rx="6.15"/><rect class="cls-4" x="189.31" y="201.74" width="86.09" height="81.82" rx="6.15"/><polyline class="cls-5" points="290.95 247.97 371.49 247.97 370.56 208.08"/><polygon class="cls-6" points="377.75 210 370.31 197.8 363.46 210.34 377.75 210"/><polyline class="cls-5" points="23.6 124.81 23.6 248.49 168.85 248.49"/><polygon class="cls-6" points="166.76 255.63 179.13 248.49 166.76 241.34 166.76 255.63"/><text class="cls-7" transform="translate(145.32 12.94)">reTyre exlusively sells Skins</text><text class="cls-7" transform="translate(275.4 71.91)">Kickback</text><text class="cls-8" transform="translate(43.93 168.42)">Aggressive price st<tspan class="cls-9" x="72.74" y="0">r</tspan><tspan x="75.48" y="0">ategy with </tspan><tspan x="0" y="10.31">discounts and price match</tspan></text><text class="cls-8" transform="translate(43.93 266.84)">Higher margin for the retailer</text><text class="cls-8" transform="translate(262.23 93.1)">1-10% of Skins sales</text><text class="cls-7" transform="translate(40.39 142.52)">Tyres <tspan class="cls-10" x="31.4" y="0">t</tspan><tspan x="35.04" y="0">o manufacturers</tspan></text><text class="cls-7" transform="translate(43.93 237.66)">Tyres <tspan class="cls-10" x="31.4" y="0">t</tspan><tspan x="35.04" y="0">o retail</tspan></text><text class="cls-8" transform="translate(157.38 38.1)">With high margin and low CAC</text><g id="Artwork_8" data-name="Artwork 8"><g class="cls-11"><g class="cls-11"><path class="cls-12" d="M43.48,59.88a10.93,10.93,0,0,1-8.64.39.09.09,0,0,0-.1.15,7.63,7.63,0,0,0,5.59,2.26.06.06,0,0,1,.05.1c-1.9,2.2-3.5,7.3-2.88,11.66a.09.09,0,0,0,.18,0c.3-1.75,1.49-7.28,5.6-11a14.75,14.75,0,0,1,12.36-3.7.09.09,0,0,0,.06-.16c-2.45-1.49-7.48-1.9-12.22.32"/><path class="cls-12" d="M57.65,63l-.4,1.47a.33.33,0,0,1-.32.25H55.18a2.4,2.4,0,0,0-2.31,1.78l-1.15,4.29a.34.34,0,0,1-.33.25H49.78a.25.25,0,0,1-.24-.31l1.24-4.63a4.6,4.6,0,0,1,4.44-3.41h2.19a.25.25,0,0,1,.24.31"/><path class="cls-12" d="M58.32,64.52,57.1,69.1a1.57,1.57,0,0,0,1.52,2h5.54a1.07,1.07,0,0,0,1-.79l.25-.93a.25.25,0,0,0-.24-.31H59.62a.24.24,0,0,1-.23-.31l.2-.75h4.3a2.43,2.43,0,0,0,2.35-1.8l.34-1.26a1.75,1.75,0,0,0-1.69-2.21H60.67a2.44,2.44,0,0,0-2.35,1.8M63.84,66H60.12l.27-1a.34.34,0,0,1,.32-.26h3.72l-.26,1a.33.33,0,0,1-.33.25"/><path class="cls-12" d="M51.17,63.06,44.81,73.49a.49.49,0,0,1-.41.23H42.83a.22.22,0,0,1-.19-.34l.9-1.46A3,3,0,0,0,44,70.09l-.46-5.25h0a13.15,13.15,0,0,1,2-1.78L46,67.91l3-5a.49.49,0,0,1,.41-.23H51a.22.22,0,0,1,.19.34"/><path class="cls-6" d="M28.81,63l-.4,1.47a.33.33,0,0,1-.32.25H26.34A2.4,2.4,0,0,0,24,66.53l-1.15,4.29a.33.33,0,0,1-.33.25H20.94a.25.25,0,0,1-.24-.31L22,66.13a4.59,4.59,0,0,1,4.44-3.41h2.18a.25.25,0,0,1,.24.31"/><path class="cls-6" d="M36.05,62.72H31.84a2.42,2.42,0,0,0-2.35,1.8L28.26,69.1a1.57,1.57,0,0,0,1.52,2h6.3c.08-.86.2-1.69.26-2H30.78a.24.24,0,0,1-.23-.31l.2-.75h4.3a2.43,2.43,0,0,0,2.35-1.8l.34-1.26a1.75,1.75,0,0,0-1.69-2.21m-.72,3A.33.33,0,0,1,35,66H31.28l.27-1a.34.34,0,0,1,.33-.26H35.6Z"/></g></g></g><polygon class="cls-12" points="213.76 132.38 208.53 132.38 207.15 154.36 215.14 150.37 213.76 132.38"/><path class="cls-12" d="M235.12,158.15v-7.1a.28.28,0,0,0-.4-.25l-15.18,7.59a.27.27,0,0,1-.4-.24v-7.1a.28.28,0,0,0-.4-.25l-15.44,7.72a.27.27,0,0,0-.15.24v16.83a.28.28,0,0,0,.28.28h47.4a.28.28,0,0,0,.28-.28V151.05a.28.28,0,0,0-.4-.25l-15.19,7.59A.27.27,0,0,1,235.12,158.15Zm-18.26,12.12h-7.44a.28.28,0,0,1-.27-.28v-5.36a.28.28,0,0,1,.27-.28h7.44a.28.28,0,0,1,.28.28V170A.28.28,0,0,1,216.86,170.27Zm14,0h-7.44a.29.29,0,0,1-.28-.28v-5.36a.29.29,0,0,1,.28-.28h7.44a.29.29,0,0,1,.28.28V170A.29.29,0,0,1,230.85,170.27Zm14,0H237.4a.28.28,0,0,1-.28-.28v-5.36a.28.28,0,0,1,.28-.28h7.44a.28.28,0,0,1,.27.28V170A.28.28,0,0,1,244.84,170.27Z"/><polygon class="cls-12" points="12.33 64.52 6.62 64.52 5.11 88.54 13.84 84.17 12.33 64.52"/><path class="cls-12" d="M35.67,92.67V84.92a.3.3,0,0,0-.43-.27l-16.6,8.29a.3.3,0,0,1-.43-.27V84.92a.3.3,0,0,0-.44-.27L.91,93.08a.28.28,0,0,0-.17.27v18.39a.31.31,0,0,0,.3.3h51.8a.31.31,0,0,0,.3-.3V84.92a.3.3,0,0,0-.44-.27L36.11,92.94A.3.3,0,0,1,35.67,92.67Zm-20,13.24H7.59a.3.3,0,0,1-.3-.3V99.76a.31.31,0,0,1,.3-.31h8.13a.3.3,0,0,1,.3.31v5.85A.29.29,0,0,1,15.72,105.91Zm15.28,0H22.87a.3.3,0,0,1-.3-.3V99.76a.31.31,0,0,1,.3-.31H31a.31.31,0,0,1,.31.31v5.85A.3.3,0,0,1,31,105.91Zm15.29,0H38.16a.29.29,0,0,1-.3-.3V99.76a.3.3,0,0,1,.3-.31h8.13a.31.31,0,0,1,.3.31v5.85A.3.3,0,0,1,46.29,105.91Z"/><g id="Artwork_9" data-name="Artwork 9"><g class="cls-13"><g class="cls-13"><path class="cls-6" d="M229.46,139.42a4.47,4.47,0,1,1-4.47,4.46,4.46,4.46,0,0,1,4.47-4.46m0-1a5.5,5.5,0,1,0,5.49,5.49,5.49,5.49,0,0,0-5.49-5.49"/><path class="cls-6" d="M245.94,139.42a4.47,4.47,0,1,1-4.47,4.46,4.46,4.46,0,0,1,4.47-4.46m0-1a5.5,5.5,0,1,0,5.49,5.49,5.49,5.49,0,0,0-5.49-5.49"/><path class="cls-14" d="M246.42,143.69l-2.71-6.77v-1.81l1.28-1.93a.51.51,0,0,0,0-.53.54.54,0,0,0-.46-.27h-3.43a.52.52,0,1,0,0,1h2.47l-.84,1.26a.57.57,0,0,0-.08.29v1.54H235a.51.51,0,0,0-.4.19l-5.5,6.87a.55.55,0,0,0-.06.55.52.52,0,0,0,.47.29h5.4a1.89,1.89,0,0,0,3.7-.52,1.91,1.91,0,0,0-.38-1.12l4.82-4.83,2.46,6.15a.51.51,0,0,0,.48.32.43.43,0,0,0,.19,0,.52.52,0,0,0,.29-.67m-11.72-5.54,1,4.1a1.88,1.88,0,0,0-.87,1.12h-4.33Zm2,6.59a.86.86,0,1,1,.85-.86.85.85,0,0,1-.85.86m.68-2.61a1.8,1.8,0,0,0-.62-.13l-1.12-4.47H242Z"/><path class="cls-14" d="M232.55,135.13h4.12a.52.52,0,0,0,0-1h-4.12a.52.52,0,1,0,0,1"/></g></g></g><g id="Artwork_9-2" data-name="Artwork 9"><g class="cls-15"><g class="cls-16"><path class="cls-6" d="M344.29,159.34a12.19,12.19,0,1,1-12.18,12.18,12.2,12.2,0,0,1,12.18-12.18m0-2.81a15,15,0,1,0,15,15,15,15,0,0,0-15-15"/><path class="cls-6" d="M389.28,159.34a12.19,12.19,0,1,1-12.18,12.18,12.2,12.2,0,0,1,12.18-12.18m0-2.81a15,15,0,1,0,15,15,15,15,0,0,0-15-15"/><path class="cls-14" d="M390.59,171l-7.4-18.5v-4.92l3.51-5.27a1.41,1.41,0,0,0-1.17-2.19h-9.37a1.41,1.41,0,1,0,0,2.81h6.75l-2.3,3.44a1.42,1.42,0,0,0-.23.78v4.22H359.29a1.39,1.39,0,0,0-1.1.53l-15,18.74a1.44,1.44,0,0,0-.17,1.49,1.41,1.41,0,0,0,1.27.8H359a5.14,5.14,0,0,0,10.09-1.41,5.07,5.07,0,0,0-1-3.07l13.18-13.17L388,172.05a1.4,1.4,0,0,0,1.3.88,1.34,1.34,0,0,0,.52-.1,1.4,1.4,0,0,0,.79-1.83m-32-15.13,2.8,11.2a5.19,5.19,0,0,0-2.37,3.05H347.22Zm5.37,18a2.34,2.34,0,1,1,2.34-2.34,2.35,2.35,0,0,1-2.34,2.34m1.86-7.13a5.05,5.05,0,0,0-1.7-.35l-3.05-12.2h17.3Z"/><path class="cls-14" d="M352.73,147.62H364a1.41,1.41,0,0,0,0-2.81H352.73a1.41,1.41,0,1,0,0,2.81"/></g></g></g><path class="cls-12" d="M55.21,38.24l-5.87-7.83V1.55A1.55,1.55,0,0,0,47.79,0H7.73A1.55,1.55,0,0,0,6.18,1.55V30.41L.31,38.24a1.54,1.54,0,0,0,1.24,2.47H54a1.54,1.54,0,0,0,1.23-2.47ZM20.1,37.62,21.25,35h13l1.16,2.58Zm26.15-8.25h-37V3.09h37Z"/><g id="Artwork_8-2" data-name="Artwork 8"><g class="cls-17"><g class="cls-17"><path class="cls-12" d="M26.3,12a5,5,0,0,1-4,.18s-.08,0-.05.07a3.5,3.5,0,0,0,2.57,1s0,0,0,0a7.65,7.65,0,0,0-1.32,5.36,0,0,0,0,0,.08,0,9.14,9.14,0,0,1,2.57-5.06,6.8,6.8,0,0,1,5.68-1.7,0,0,0,0,0,0-.08A6.5,6.5,0,0,0,26.3,12"/><path class="cls-12" d="M32.81,13.42l-.18.67a.16.16,0,0,1-.15.12h-.8a1.09,1.09,0,0,0-1.06.81l-.53,2a.16.16,0,0,1-.15.11H29.2a.11.11,0,0,1-.11-.14l.57-2.13a2.11,2.11,0,0,1,2-1.56h1a.11.11,0,0,1,.1.14"/><path class="cls-12" d="M33.12,14.1l-.56,2.11a.73.73,0,0,0,.7.91h2.55a.49.49,0,0,0,.47-.37l.12-.43a.11.11,0,0,0-.11-.14H33.72a.11.11,0,0,1-.11-.14l.09-.34h2a1.11,1.11,0,0,0,1.08-.83l.16-.58a.81.81,0,0,0-.78-1H34.2a1.13,1.13,0,0,0-1.08.82m2.54.68H34l.12-.45a.16.16,0,0,1,.15-.12h1.71l-.12.46a.16.16,0,0,1-.15.11"/><path class="cls-12" d="M29.84,13.43l-2.92,4.79a.23.23,0,0,1-.19.11H26a.11.11,0,0,1-.09-.16l.41-.67a1.44,1.44,0,0,0,.2-.84l-.21-2.41h0a6.35,6.35,0,0,1,.94-.82l.19,2.23,1.39-2.28a.23.23,0,0,1,.19-.1h.72a.1.1,0,0,1,.09.15"/><path class="cls-6" d="M19.57,13.42l-.19.67a.15.15,0,0,1-.15.12h-.8a1.09,1.09,0,0,0-1.06.81l-.53,2a.16.16,0,0,1-.15.11H16a.11.11,0,0,1-.11-.14l.57-2.13a2.12,2.12,0,0,1,2-1.56h1a.12.12,0,0,1,.11.14"/><path class="cls-6" d="M22.89,13.28H21a1.12,1.12,0,0,0-1.08.82l-.57,2.11a.73.73,0,0,0,.7.91h2.9c0-.4.09-.78.11-.94H20.47a.12.12,0,0,1-.11-.14l.1-.34h2a1.11,1.11,0,0,0,1.08-.83l.16-.58a.8.8,0,0,0-.78-1m-.33,1.39a.15.15,0,0,1-.15.11H20.7l.12-.45a.16.16,0,0,1,.15-.12h1.71Z"/></g></g></g><path class="cls-12" d="M31.55,18.23C32,19.29,32.61,21,33,22.09l.83,2.19c.39,1.06,1.13,1.09,1.62.07L36.11,23c.06-.11.15-.23.22-.35l3.2,3.2a1.53,1.53,0,0,0,1.09.45,1.55,1.55,0,0,0,1.09-2.64l-3.19-3.19a3.26,3.26,0,0,1,.34-.22l1.39-.67c1-.49,1-1.22-.08-1.62L38,17.11l-3.86-1.45-2.19-.82c-1.06-.4-1.6.14-1.2,1.2Z"/><polyline class="cls-5" points="66.64 22.26 368.81 22.26 368.81 93.9"/><polygon class="cls-6" points="361.66 91.81 368.81 104.19 375.95 91.81 361.66 91.81"/><polyline class="cls-5" points="368.81 79.76 232.35 79.76 232.35 93.9"/><polygon class="cls-6" points="225.21 91.81 232.35 104.19 239.5 91.81 225.21 91.81"/><line class="cls-5" x1="24.97" y1="153.44" x2="168.85" y2="153.44"/><polygon class="cls-6" points="166.76 160.59 179.13 153.44 166.76 146.3 166.76 160.59"/><circle class="cls-12" cx="373.32" cy="119.42" r="6.23" transform="translate(44.78 333.18) rotate(-50.79)"/><path class="cls-12" d="M370.06,131.94c3.52,3.37,7.44,7.19,11,10.45a2,2,0,0,0,1.79.58,2.34,2.34,0,0,0,1.69-.79c.86-1.06,1.19-2.3,0-3.45-4.44-4.25-9.31-8.54-13.71-12.92a2.39,2.39,0,0,0-.32-.25c-.09,0-.84-.67-.91-.71-3.3-1.71-5.72-.85-8.47,1.94a33.47,33.47,0,0,0-8,14.13c-1.11,3.85.9,6,3.86,7.49a8,8,0,0,0,1.7.59,3,3,0,0,0,.47.13c3.08.57,6.1,1,9.14,1.61-1.1,4.82-2.78,10.11-3.87,14.75-.55,2.36.66,3.27,2.36,4.14a1.28,1.28,0,0,0,.84.11c1.62-.35,2.71-.58,3.26-2.61,1.57-5.81,2.53-11.51,3.7-17.49A3.11,3.11,0,0,0,374,147a4.8,4.8,0,0,0-2.14-1.39,62.09,62.09,0,0,0-8.85-2.9,58.72,58.72,0,0,1,5.8-9.08C369,133.39,369.93,132.12,370.06,131.94Z"/></g></g></svg>