<svg xmlns="http://www.w3.org/2000/svg" xmlns:xlink="http://www.w3.org/1999/xlink" viewBox="0 0 370.69 166.32"><defs><style>.cls-1,.cls-5,.cls-6,.cls-7{fill:none;}.cls-2,.cls-4{fill:#454544;}.cls-2{fill-rule:evenodd;}.cls-3{fill:#fff;}.cls-5,.cls-6,.cls-7{stroke:#00a7e1;stroke-miterlimit:10;}.cls-5{stroke-width:4.75px;}.cls-6{stroke-width:0.79px;}.cls-7{stroke-width:1.36px;}.cls-8{fill:#00a7e1;}.cls-9{font-size:7.47px;font-family:Roboto-Regular, Roboto;}.cls-10{letter-spacing:-0.02em;}.cls-11{letter-spacing:-0.01em;}.cls-12{clip-path:url(#clip-path);}.cls-13{clip-path:url(#clip-path-3);}.cls-14{clip-path:url(#clip-path-4);}.cls-15{fill:#48484a;}</style><clipPath id="clip-path"><rect class="cls-1" x="13.24" y="80" width="30.48" height="10.74"/></clipPath><clipPath id="clip-path-3"><rect class="cls-1" x="192.57" y="26.55" width="21.69" height="13.42"/></clipPath><clipPath id="clip-path-4"><rect class="cls-1" x="192.57" y="26.55" width="21.69" height="13.42"/></clipPath></defs><g id="Layer_2" data-name="Layer 2"><g id="Layer_1-2" data-name="Layer 1"><path class="cls-2" d="M338.76,101.13a1.34,1.34,0,0,1-1.32-1.34v-3.5A5.27,5.27,0,0,1,342.7,91h6.09a5.28,5.28,0,0,1,5.27,5.27v4.18a1.35,1.35,0,0,1-1.35,1.34Z"/><path class="cls-3" d="M348.79,91.49a4.8,4.8,0,0,1,4.8,4.8v4.18a.87.87,0,0,1-.88.87l-13.92-.68a.87.87,0,0,1-.88-.87v-3.5a4.8,4.8,0,0,1,4.79-4.8h6.09m0-.94H342.7A5.74,5.74,0,0,0,337,96.29v3.5a1.81,1.81,0,0,0,1.82,1.81l13.87.68h0a1.83,1.83,0,0,0,1.86-1.81V96.29a5.75,5.75,0,0,0-5.74-5.74Z"/><circle class="cls-4" cx="345.75" cy="86.3" r="5.09"/><path class="cls-3" d="M345.75,80.75a5.56,5.56,0,0,0-2,10.74h4a5.55,5.55,0,0,0-2-10.74Zm0,10.17a4.62,4.62,0,1,1,4.62-4.61A4.61,4.61,0,0,1,345.75,90.92Z"/><path class="cls-2" d="M354.94,102.16a1.34,1.34,0,0,1-1.34-1.35V96.64a5.27,5.27,0,0,1,5.26-5.27H365a5.28,5.28,0,0,1,5.27,5.27v3.5a1.35,1.35,0,0,1-1.35,1.34l-13.92.68Z"/><path class="cls-3" d="M365,91.84a4.8,4.8,0,0,1,4.8,4.8v3.5a.87.87,0,0,1-.88.87l-13.93.68a.87.87,0,0,1-.87-.88V96.63a4.79,4.79,0,0,1,4.79-4.79H365m0-.94h-6.09a5.74,5.74,0,0,0-5.73,5.73v4.18a1.81,1.81,0,0,0,1.81,1.82l14-.68h0a1.81,1.81,0,0,0,1.78-1.81v-3.5A5.75,5.75,0,0,0,365,90.9Z"/><circle class="cls-4" cx="361.91" cy="86.65" r="5.09"/><path class="cls-3" d="M361.91,81.09a5.56,5.56,0,0,0-2,10.75h4a5.56,5.56,0,0,0-2-10.75Zm0,10.18a4.62,4.62,0,1,1,4.61-4.62A4.62,4.62,0,0,1,361.91,91.27Z"/><path class="cls-2" d="M347.1,104.57a1.35,1.35,0,0,1-1.34-1.35V99A5.27,5.27,0,0,1,351,93.78h6.09a5.28,5.28,0,0,1,5.27,5.27v4.17a1.36,1.36,0,0,1-1.35,1.35Z"/><path class="cls-3" d="M357.11,94.25a4.8,4.8,0,0,1,4.8,4.8v4.17a.89.89,0,0,1-.88.88H347.1a.88.88,0,0,1-.87-.88V99A4.78,4.78,0,0,1,351,94.25h6.09m0-.94H351A5.74,5.74,0,0,0,345.29,99v4.18A1.82,1.82,0,0,0,347.1,105H361a1.83,1.83,0,0,0,1.82-1.82V99.05a5.75,5.75,0,0,0-5.74-5.74Z"/><circle class="cls-4" cx="354.07" cy="89.06" r="5.09"/><path class="cls-3" d="M354.07,83.5a5.56,5.56,0,0,0-2,10.75h4a5.56,5.56,0,0,0-2-10.75Zm0,10.18a4.62,4.62,0,1,1,4.61-4.62A4.62,4.62,0,0,1,354.07,93.68Z"/><polyline class="cls-5" points="18 66.81 18 36.2 149.24 36.2"/><line class="cls-5" x1="55.14" y1="96.91" x2="149.24" y2="96.91"/><line class="cls-5" x1="234.76" y1="96.91" x2="315.29" y2="96.91"/><rect class="cls-6" x="164.91" y="21.28" width="57.11" height="91.06" rx="6.15"/><polyline class="cls-7" points="18.19 128.62 18.19 145.7 354.07 145.7 353.57 124.45"/><polygon class="cls-8" points="357.57 127.04 353.29 112.42 349.69 127.23 357.57 127.04"/><text class="cls-9" transform="translate(47.27 26.55)">Base tyres sold OEM </text><text class="cls-9" transform="translate(159.11 6.39)">Retail chain with <tspan x="0" y="8.96">in-house bike b</tspan><tspan class="cls-10" x="49.92" y="8.96">r</tspan><tspan x="52.3" y="8.96">ands</tspan></text><text class="cls-9" transform="translate(54.74 115.81)">Skins/tyres for aftermarket</text><text class="cls-9" transform="translate(234.76 85.37)">Base tyres + Skins</text><text class="cls-9" transform="translate(234.76 112.35)">Skins</text><text class="cls-9" transform="translate(84.35 164.3)">Skins for afermarket <tspan class="cls-11" x="69.37" y="0">o</tspan><tspan x="73.57" y="0">ver life span of base tyres (6 years)</tspan></text><g id="Artwork_8" data-name="Artwork 8"><g class="cls-12"><g class="cls-12"><path class="cls-4" d="M28.35,81a7.26,7.26,0,0,1-5.73.26.06.06,0,0,0-.06.1,5,5,0,0,0,3.7,1.5s.06,0,0,.06a11,11,0,0,0-1.9,7.74.06.06,0,0,0,.12,0,13.16,13.16,0,0,1,3.71-7.32,9.82,9.82,0,0,1,8.19-2.45.06.06,0,0,0,.05-.11c-1.63-1-5-1.25-8.11.22"/><path class="cls-4" d="M37.75,83.12l-.26,1a.24.24,0,0,1-.22.16H36.11a1.57,1.57,0,0,0-1.53,1.18l-.77,2.85a.22.22,0,0,1-.21.16H32.53a.16.16,0,0,1-.16-.2l.83-3.08a3,3,0,0,1,2.94-2.26h1.45a.16.16,0,0,1,.16.21"/><path class="cls-4" d="M38.2,84.11l-.81,3a1,1,0,0,0,1,1.31h3.68a.73.73,0,0,0,.69-.53l.16-.62a.16.16,0,0,0-.15-.2H39.06a.16.16,0,0,1-.16-.2l.14-.5h2.85a1.62,1.62,0,0,0,1.56-1.19l.22-.84a1.16,1.16,0,0,0-1.12-1.47H39.76a1.61,1.61,0,0,0-1.56,1.2m3.66,1H39.39l.18-.66a.21.21,0,0,1,.21-.17h2.47l-.18.66a.21.21,0,0,1-.21.17"/><path class="cls-4" d="M33.45,83.14l-4.22,6.92a.32.32,0,0,1-.27.15h-1A.14.14,0,0,1,27.8,90l.59-1a2,2,0,0,0,.28-1.21l-.3-3.48h0a8.3,8.3,0,0,1,1.36-1.18L30,86.36l2-3.29a.32.32,0,0,1,.27-.16h1a.15.15,0,0,1,.12.23"/><path class="cls-8" d="M18.62,83.12l-.26,1a.24.24,0,0,1-.22.16H17a1.58,1.58,0,0,0-1.53,1.18l-.76,2.85a.24.24,0,0,1-.22.16H13.4a.16.16,0,0,1-.16-.2l.83-3.08A3,3,0,0,1,17,82.91h1.45a.16.16,0,0,1,.16.21"/><path class="cls-8" d="M23.42,82.91H20.63a1.61,1.61,0,0,0-1.56,1.2l-.81,3a1,1,0,0,0,1,1.31h4.18c.06-.58.13-1.13.17-1.35H19.93a.16.16,0,0,1-.16-.2l.14-.5h2.85a1.61,1.61,0,0,0,1.56-1.2l.23-.83a1.17,1.17,0,0,0-1.13-1.47m-.47,2a.23.23,0,0,1-.22.17H20.26l.18-.66a.21.21,0,0,1,.21-.17h2.47Z"/></g></g></g><path class="cls-4" d="M182.84,68a1.08,1.08,0,0,0-.43.1l-11.58,5.28v2.46h1.56V88.55h2.28v-12h16.39v12h2.28V75.82h1.56V73.36l-11.59-5.28a1.1,1.1,0,0,0-.47-.1Zm-2,3.26h4a.28.28,0,0,1,.29.3.29.29,0,0,1-.29.29h-4a.31.31,0,0,1-.3-.29A.29.29,0,0,1,180.83,71.24Zm-1.34,1.44h6.74a.3.3,0,0,1,0,.59h-6.74a.3.3,0,0,1,0-.59Z"/><path class="cls-4" d="M185.87,88.55h3.31a.29.29,0,0,0,.29-.29V84.89a.29.29,0,0,0-.29-.3h-3.31a.29.29,0,0,0-.29.3v3.37A.29.29,0,0,0,185.87,88.55Z"/><path class="cls-4" d="M179.85,88.55a.29.29,0,0,0,.29-.29V84.89a.29.29,0,0,0-.29-.3h-3.31a.29.29,0,0,0-.29.3v3.37a.29.29,0,0,0,.29.29Z"/><path class="cls-4" d="M180.92,84.89v3.37a.29.29,0,0,0,.29.29h3.3a.29.29,0,0,0,.29-.29V84.89a.29.29,0,0,0-.29-.3h-3.3A.29.29,0,0,0,180.92,84.89Z"/><path class="cls-4" d="M182.18,83.71a.29.29,0,0,0,.29-.3V80a.29.29,0,0,0-.29-.29h-3.3a.29.29,0,0,0-.29.29v3.37a.29.29,0,0,0,.29.3Z"/><path class="cls-4" d="M183.54,83.71h3.31a.29.29,0,0,0,.29-.3V80a.29.29,0,0,0-.29-.29h-3.31a.29.29,0,0,0-.29.29v3.37A.29.29,0,0,0,183.54,83.71Z"/><polygon class="cls-4" points="181.13 28.7 177.66 28.7 176.75 43.27 182.05 40.62 181.13 28.7"/><path class="cls-4" d="M195.3,45.79V41.08a.18.18,0,0,0-.26-.17L185,46a.18.18,0,0,1-.26-.16V41.08a.19.19,0,0,0-.27-.17L174.2,46a.18.18,0,0,0-.11.17V57.36a.19.19,0,0,0,.19.18h31.44a.19.19,0,0,0,.19-.18V41.08a.19.19,0,0,0-.27-.17l-10.07,5A.19.19,0,0,1,195.3,45.79Zm-12.11,8h-4.94a.18.18,0,0,1-.18-.18V50.09a.18.18,0,0,1,.18-.19h4.94a.18.18,0,0,1,.18.19v3.55A.18.18,0,0,1,183.19,53.82Zm9.28,0h-4.94a.18.18,0,0,1-.18-.18V50.09a.18.18,0,0,1,.18-.19h4.94a.18.18,0,0,1,.18.19v3.55A.18.18,0,0,1,192.47,53.82Zm9.28,0h-4.94a.18.18,0,0,1-.18-.18V50.09a.18.18,0,0,1,.18-.19h4.94a.18.18,0,0,1,.18.19v3.55A.18.18,0,0,1,201.75,53.82Z"/><polygon class="cls-4" points="7.69 84.11 3.9 84.11 2.9 100.04 8.69 97.14 7.69 84.11"/><path class="cls-4" d="M23.17,102.78V97.64a.2.2,0,0,0-.29-.18l-11,5.5a.2.2,0,0,1-.29-.18V97.64a.2.2,0,0,0-.29-.18L.11,103.05a.19.19,0,0,0-.11.18v12.2a.2.2,0,0,0,.2.2H34.56a.2.2,0,0,0,.2-.2V97.64a.2.2,0,0,0-.29-.18l-11,5.5A.2.2,0,0,1,23.17,102.78ZM9.94,111.56H4.54a.19.19,0,0,1-.2-.2v-3.88a.2.2,0,0,1,.2-.2h5.4a.2.2,0,0,1,.2.2v3.88A.19.19,0,0,1,9.94,111.56Zm10.14,0h-5.4a.19.19,0,0,1-.2-.2v-3.88a.2.2,0,0,1,.2-.2h5.4a.2.2,0,0,1,.2.2v3.88A.19.19,0,0,1,20.08,111.56Zm10.13,0H24.82a.19.19,0,0,1-.2-.2v-3.88a.2.2,0,0,1,.2-.2h5.39a.2.2,0,0,1,.2.2v3.88A.19.19,0,0,1,30.21,111.56Z"/><path class="cls-3" d="M185.57,87.14l3.3-8.52a.21.21,0,0,1,.19-.13h13.33a.2.2,0,0,1,.21.2V93.1a.21.21,0,0,1-.27.2l-16.64-5.9A.2.2,0,0,1,185.57,87.14Z"/><path class="cls-2" d="M188.61,79.9h21.5a.21.21,0,0,0,.21-.21V78.08a.21.21,0,0,0-.21-.21h-21.5a.22.22,0,0,0-.21.21v1.61A.21.21,0,0,0,188.61,79.9Zm24,6.56h-4.2a.19.19,0,0,1-.19-.15l-1.54-5.23a.21.21,0,0,1,.2-.26h3.34a.2.2,0,0,1,.19.12l2.39,5.23A.21.21,0,0,1,212.61,86.46Zm-21.19-.26L193,81a.2.2,0,0,1,.19-.14h3.59a.2.2,0,0,1,.2.23l-.81,5.24a.2.2,0,0,1-.2.17h-4.31A.21.21,0,0,1,191.42,86.2ZM198,80.82h2.63a.21.21,0,0,1,.21.17l.8,5.23a.2.2,0,0,1-.2.24h-4.25a.21.21,0,0,1-.2-.24l.81-5.23A.2.2,0,0,1,198,80.82Zm4.54,5.47-.81-5.24a.2.2,0,0,1,.2-.23h3.58a.22.22,0,0,1,.2.14l1.53,5.24a.2.2,0,0,1-.19.26h-4.31A.2.2,0,0,1,202.57,86.29Zm-14.19-5.47h3.44a.2.2,0,0,1,.19.26l-1.53,5.23a.2.2,0,0,1-.2.15H186a.2.2,0,0,1-.18-.29l2.34-5.23A.18.18,0,0,1,188.38,80.82Zm24.79,8.91a.2.2,0,0,1-.2.2H185.69a.2.2,0,0,1-.2-.2v-2.2a.2.2,0,0,1,.2-.2H213a.2.2,0,0,1,.2.2Zm-3.88,9.06a.64.64,0,0,1-.64.64h-9.12a.64.64,0,0,1-.64-.64V93.16a.64.64,0,0,1,.64-.64h9.12a.64.64,0,0,1,.64.64ZM187,91v10.68a.2.2,0,0,0,.2.2h2.37a.2.2,0,0,0,.2-.2V93.16a.64.64,0,0,1,.64-.64h5.3a.64.64,0,0,1,.64.64v8.53a.21.21,0,0,0,.21.2h15a.2.2,0,0,0,.2-.2V91a.21.21,0,0,0-.2-.21H187.16A.21.21,0,0,0,187,91Zm6.91,7.42a.78.78,0,0,1-.78-.78.78.78,0,1,1,.78.78Zm-3.06,3.46h4.43a.2.2,0,0,0,.2-.2V93.6a.2.2,0,0,0-.2-.21h-4.43a.21.21,0,0,0-.21.21v8.09A.2.2,0,0,0,190.81,101.89Z"/><g id="Artwork_9" data-name="Artwork 9"><g class="cls-13"><g class="cls-14"><path class="cls-8" d="M196.91,32.11a3.53,3.53,0,1,1-3.53,3.52,3.53,3.53,0,0,1,3.53-3.52m0-.82a4.34,4.34,0,1,0,4.34,4.34,4.34,4.34,0,0,0-4.34-4.34"/><path class="cls-8" d="M209.92,32.11a3.53,3.53,0,1,1-3.52,3.52,3.53,3.53,0,0,1,3.52-3.52m0-.82a4.34,4.34,0,1,0,4.34,4.34,4.35,4.35,0,0,0-4.34-4.34"/><path class="cls-15" d="M210.3,35.48l-2.14-5.35V28.71l1-1.53a.42.42,0,0,0,0-.42.41.41,0,0,0-.36-.21h-2.71a.41.41,0,1,0,0,.81h2l-.66,1a.34.34,0,0,0-.07.22V29.8h-6.1a.42.42,0,0,0-.32.15l-4.34,5.43a.4.4,0,0,0-.05.43.41.41,0,0,0,.37.23h4.26a1.49,1.49,0,0,0,2.92-.41,1.47,1.47,0,0,0-.3-.89l3.81-3.81,1.94,4.85a.42.42,0,0,0,.38.26.4.4,0,0,0,.15,0,.41.41,0,0,0,.23-.53m-9.25-4.38.81,3.24a1.55,1.55,0,0,0-.69.88h-3.42Zm1.55,5.21a.68.68,0,1,1,.68-.68.68.68,0,0,1-.68.68m.54-2.07a1.58,1.58,0,0,0-.49-.1l-.88-3.52h5Z"/><path class="cls-15" d="M199.35,28.72h3.25a.41.41,0,0,0,0-.82h-3.25a.41.41,0,1,0,0,.82"/></g></g></g><polygon class="cls-8" points="158.19 35.62 141.88 26.2 141.88 45.04 158.19 35.62"/><polygon class="cls-8" points="158.19 97.44 141.88 88.02 141.88 106.85 158.19 97.44"/><polygon class="cls-8" points="324.98 96.91 308.67 87.5 308.67 106.33 324.98 96.91"/></g></g></svg>