<svg xmlns="http://www.w3.org/2000/svg" viewBox="0 0 400.61 128.37">
    <defs>
        <style>.cls-1{font-size:11.85px;font-family:UniSansBold, Uni Sans;}.cls-1,.cls-10{fill:#00a7e1;}.cls-12,.cls-2,.cls-3,.cls-8,.cls-9{fill:none;}.cls-12,.cls-2,.cls-3,.cls-9{stroke:#cdcdcd;}.cls-2,.cls-3,.cls-9{stroke-linejoin:round;}.cls-2{stroke-width:0.27px;}.cls-3{stroke-width:0.27px;}.cls-4{font-size:6.82px;}.cls-4,.cls-7{fill:#595959;font-family:Calibri;}.cls-5{letter-spacing:0.05em;}.cls-6{letter-spacing:-0.06em;}.cls-7{font-size:7.58px;}.cls-8{stroke:#00a7e1;stroke-width:0.35px;}.cls-12,.cls-8{stroke-miterlimit:10;}.cls-9{stroke-width:0.26px;}.cls-11{letter-spacing:-0.01em;}.cls-12{stroke-width:0.41px;}.cls-13{fill:#cdcdcd;}.cls-14{font-size:5.76px;fill:#666;font-family:Roboto-Regular, Roboto;}.cls-15{letter-spacing:-0.01em;}.cls-16{letter-spacing:-0.01em;}</style>
    </defs>
    <g id="Layer_2" data-name="Layer 2">
        <g id="Layer_1-2" data-name="Layer 1">
            <text class="cls-1" transform="translate(284.99 15.81)">Current growth</text>
            <text class="cls-1" transform="translate(58.54 13.3)">Sold products</text>
            <path class="cls-2" d="M257.66,96.55h143M257.66,82.29h143M257.66,68h143M257.66,53.78h143M257.66,39.53h143M257.66,25.27h143" />
            <line class="cls-3" x1="257.66" y1="110.81" x2="400.61" y2="110.81" />
            <text class="cls-4" transform="translate(264.31 126.1)">
                <tspan class="cls-5">2</tspan>
                <tspan class="cls-6" x="3.78" y="0">0</tspan>
                <tspan class="cls-5" x="6.82" y="0">1</tspan>
                <tspan x="10.6" y="0">7</tspan>
            </text>
            <text class="cls-7" transform="translate(232.99 27.53)">60 000</text>
            <text class="cls-7" transform="translate(232.99 41.79)">50 000</text>
            <text class="cls-7" transform="translate(232.99 56.05)">40 000</text>
            <text class="cls-7" transform="translate(232.99 70.3)">30 000</text>
            <text class="cls-7" transform="translate(232.99 84.56)">20 000</text>
            <text class="cls-7" transform="translate(232.99 98.82)">10 000</text>
            <text class="cls-7" transform="translate(250.05 113.07)">0</text>
            <text class="cls-4" transform="translate(286.17 126.1)">
                <tspan class="cls-5">2</tspan>
                <tspan class="cls-6" x="3.78" y="0">0</tspan>
                <tspan class="cls-5" x="6.82" y="0">1</tspan>
                <tspan x="10.6" y="0">8</tspan>
            </text>
            <text class="cls-4" transform="translate(308.02 126.1)">
                <tspan class="cls-5">2</tspan>
                <tspan class="cls-6" x="3.78" y="0">0</tspan>
                <tspan class="cls-5" x="6.82" y="0">1</tspan>
                <tspan x="10.6" y="0">9</tspan>
            </text>
            <text class="cls-4" transform="translate(329.87 126.17)">
                <tspan class="cls-5">2</tspan>
                <tspan class="cls-6" x="3.78" y="0">0</tspan>
                <tspan class="cls-5" x="6.82" y="0">2</tspan>
                <tspan x="10.6" y="0">0</tspan>
            </text>
            <text class="cls-4" transform="translate(351.73 126.17)">
                <tspan class="cls-5">2</tspan>
                <tspan class="cls-6" x="3.78" y="0">0</tspan>
                <tspan class="cls-5" x="6.82" y="0">2</tspan>
                <tspan x="10.6" y="0">1</tspan>
            </text>
            <text class="cls-4" transform="translate(373.58 126.24)">
                <tspan class="cls-5">2</tspan>
                <tspan class="cls-6" x="3.78" y="0">0</tspan>
                <tspan class="cls-5" x="6.82" y="0">2</tspan>
                <tspan x="10.6" y="0">2</tspan>
            </text>
            <path class="cls-8" d="M267.42,109.2c8.6-1.86,20.15-2.57,25.23-2.72a155.77,155.77,0,0,0,21.45-2.17c6.6-1.24,14.34-4,24.08-10C366.33,77,382.81,35.9,383.23,33.54" />
            <path class="cls-9" d="M33.88,99.4H178.31M33.88,88H178.31M33.88,76.67H178.31M33.88,65.31H178.31M33.88,54H178.31M33.88,42.58H178.31M33.88,31.22H178.31" />
            <polygon class="cls-10" points="50.79 101.66 59.12 101.66 59.12 110.76 50.79 110.76 50.79 101.66 50.79 101.66" />
            <polygon class="cls-10" points="88.09 93.96 96.42 93.96 96.42 110.76 88.09 110.76 88.09 93.96 88.09 93.96" />
            <polygon class="cls-10" points="125.78 82.29 133.35 82.29 133.35 110.76 125.78 110.76 125.78 82.29 125.78 82.29" />
            <polygon class="cls-10" points="162.71 44.91 171.03 44.91 171.03 110.14 162.71 110.14 162.71 44.91 162.71 44.91" />
            <polygon class="cls-10" points="268.67 108.44 274.39 108.44 274.39 110.76 268.67 110.76 268.67 108.44 268.67 108.44" />
            <polygon class="cls-10" points="290.12 106.48 295.19 106.48 295.19 110.76 290.12 110.76 290.12 106.48 290.12 106.48" />
            <polygon class="cls-10" points="313.05 103.5 317.66 103.5 317.66 110.76 313.05 110.76 313.05 103.5 313.05 103.5" />
            <polygon class="cls-10" points="335.52 93.96 340.59 93.96 340.59 110.61 335.52 110.61 335.52 93.96 335.52 93.96" />
            <line class="cls-9" x1="33.88" y1="110.76" x2="178.31" y2="110.76" />
            <text class="cls-7" transform="translate(17.02 113)">0</text>
            <text class="cls-7" transform="translate(5.59 101.66)">
                2
                <tspan class="cls-11" x="3.84" y="0">00</tspan>
                <tspan x="11.43" y="0">0</tspan>
            </text>
            <text class="cls-7" transform="translate(5.59 90.3)">
                4
                <tspan class="cls-11" x="3.84" y="0">00</tspan>
                <tspan x="11.43" y="0">0</tspan>
            </text>
            <text class="cls-7" transform="translate(5.59 78.95)">
                6
                <tspan class="cls-11" x="3.84" y="0">00</tspan>
                <tspan x="11.43" y="0">0</tspan>
            </text>
            <text class="cls-7" transform="translate(5.59 67.61)">
                8
                <tspan class="cls-11" x="3.84" y="0">00</tspan>
                <tspan x="11.43" y="0">0</tspan>
            </text>
            <text class="cls-7" transform="translate(0.04 56.25)">
                10
                <tspan class="cls-11" x="9.39" y="0">00</tspan>
                <tspan x="16.98" y="0">0</tspan>
            </text>
            <text class="cls-7" transform="translate(0 44.91)">
                12 0
                <tspan class="cls-11" x="13.23" y="0">0</tspan>
                <tspan x="17.03" y="0">0</tspan>
            </text>
            <text class="cls-7" transform="translate(1.76 33.55)">
                14
                <tspan class="cls-11" x="7.68" y="0">00</tspan>
                <tspan x="15.27" y="0">0</tspan>
            </text>
            <text class="cls-4" transform="translate(48.84 124.71)">
                <tspan class="cls-5">2</tspan>
                <tspan class="cls-6" x="3.78" y="0">0</tspan>
                <tspan class="cls-5" x="6.82" y="0">1</tspan>
                <tspan x="10.6" y="0">7</tspan>
            </text>
            <text class="cls-4" transform="translate(85.1 124.71)">
                <tspan class="cls-5">2</tspan>
                <tspan class="cls-6" x="3.78" y="0">0</tspan>
                <tspan class="cls-5" x="6.82" y="0">1</tspan>
                <tspan x="10.6" y="0">8</tspan>
            </text>
            <text class="cls-4" transform="translate(123.52 124.71)">
                <tspan class="cls-5">2</tspan>
                <tspan class="cls-6" x="3.78" y="0">0</tspan>
                <tspan class="cls-5" x="6.82" y="0">1</tspan>
                <tspan x="10.6" y="0">9</tspan>
            </text>
            <text class="cls-4" transform="translate(157.12 124.71)">
                <tspan class="cls-5">2</tspan>
                <tspan class="cls-6" x="3.78" y="0">0</tspan>
                <tspan class="cls-5" x="6.82" y="0">2</tspan>
                <tspan x="10.6" y="0">0</tspan>
            </text>
            <line class="cls-12" x1="173.33" y1="16.12" x2="167.21" y2="40.4" />
            <polygon class="cls-13" points="166.01 38.89 167.34 39.9 168.99 39.65 166.6 42.8 166.01 38.89" />
            <text class="cls-14" transform="translate(162.81 4.92)">
                Limited by p
                <tspan class="cls-15" x="31.15" y="0">r</tspan>
                <tspan x="33.04" y="0">oduction </tspan>
                <tspan x="-3.68" y="6.91">capacity due </tspan>
                <tspan class="cls-15" x="30.17" y="6.91">t</tspan>
                <tspan x="31.99" y="6.91">o C</tspan>
                <tspan class="cls-16" x="40.44" y="6.91">o</tspan>
                <tspan x="43.69" y="6.91">vid-19 </tspan>
            </text>
        </g>
    </g>
</svg>